<svg width="585" height="517" viewBox="0 0 585 517" fill="none" xmlns="http://www.w3.org/2000/svg">
<rect x="411.378" y="0.621978" width="40.756" height="40.756" transform="rotate(90 411.378 0.621978)" stroke="#00EBAB" stroke-width="1.24396"/>
<rect x="453.378" y="0.621978" width="40.756" height="40.756" transform="rotate(90 453.378 0.621978)" stroke="#00EBAB" stroke-width="1.24396"/>
<rect x="494.378" y="0.621978" width="40.756" height="40.756" transform="rotate(90 494.378 0.621978)" stroke="#00EBAB" stroke-width="1.24396"/>
<rect x="244.378" y="0.621978" width="40.756" height="40.756" transform="rotate(90 244.378 0.621978)" stroke="#00EBAB" stroke-width="1.24396"/>
<rect x="411.378" y="166.622" width="40.756" height="40.756" transform="rotate(90 411.378 166.622)" stroke="#00EBAB" stroke-width="1.24396"/>
<rect x="453.378" y="166.622" width="40.756" height="40.756" transform="rotate(90 453.378 166.622)" stroke="#00EBAB" stroke-width="1.24396"/>
<rect x="494.378" y="166.622" width="40.756" height="40.756" transform="rotate(90 494.378 166.622)" stroke="#00EBAB" stroke-width="1.24396"/>
<rect x="244.378" y="166.622" width="40.756" height="40.756" transform="rotate(90 244.378 166.622)" stroke="#00EBAB" stroke-width="1.24396"/>
<rect x="327.378" y="0.621978" width="40.756" height="40.756" transform="rotate(90 327.378 0.621978)" stroke="#00EBAB" stroke-width="1.24396"/>
<rect x="161.378" y="0.621978" width="40.756" height="40.756" transform="rotate(90 161.378 0.621978)" stroke="#00EBAB" stroke-width="1.24396"/>
<rect x="327.378" y="166.622" width="40.756" height="40.756" transform="rotate(90 327.378 166.622)" stroke="#00EBAB" stroke-width="1.24396"/>
<rect x="161.378" y="166.622" width="40.756" height="40.756" transform="rotate(90 161.378 166.622)" stroke="#00EBAB" stroke-width="1.24396"/>
<rect x="369.378" y="0.621978" width="40.756" height="40.756" transform="rotate(90 369.378 0.621978)" stroke="#00EBAB" stroke-width="1.24396"/>
<rect x="203.378" y="0.621978" width="40.756" height="40.756" transform="rotate(90 203.378 0.621978)" stroke="#00EBAB" stroke-width="1.24396"/>
<rect x="369.378" y="166.622" width="40.756" height="40.756" transform="rotate(90 369.378 166.622)" stroke="#00EBAB" stroke-width="1.24396"/>
<rect x="203.378" y="166.622" width="40.756" height="40.756" transform="rotate(90 203.378 166.622)" stroke="#00EBAB" stroke-width="1.24396"/>
<rect x="286.378" y="0.621978" width="40.756" height="40.756" transform="rotate(90 286.378 0.621978)" stroke="#00EBAB" stroke-width="1.24396"/>
<rect x="119.378" y="0.621978" width="40.756" height="40.756" transform="rotate(90 119.378 0.621978)" stroke="#00EBAB" stroke-width="1.24396"/>
<rect x="286.378" y="166.622" width="40.756" height="40.756" transform="rotate(90 286.378 166.622)" stroke="#00EBAB" stroke-width="1.24396"/>
<rect x="119.378" y="166.622" width="40.756" height="40.756" transform="rotate(90 119.378 166.622)" stroke="#00EBAB" stroke-width="1.24396"/>
<rect x="411.378" y="83.622" width="40.756" height="40.756" transform="rotate(90 411.378 83.622)" stroke="#00EBAB" stroke-width="1.24396"/>
<rect x="453.378" y="83.622" width="40.756" height="40.756" transform="rotate(90 453.378 83.622)" stroke="#00EBAB" stroke-width="1.24396"/>
<rect x="494.378" y="83.622" width="40.756" height="40.756" transform="rotate(90 494.378 83.622)" stroke="#00EBAB" stroke-width="1.24396"/>
<rect x="244.378" y="83.622" width="40.756" height="40.756" transform="rotate(90 244.378 83.622)" stroke="#00EBAB" stroke-width="1.24396"/>
<rect x="327.378" y="83.622" width="40.756" height="40.756" transform="rotate(90 327.378 83.622)" stroke="#00EBAB" stroke-width="1.24396"/>
<rect x="161.378" y="83.622" width="40.756" height="40.756" transform="rotate(90 161.378 83.622)" stroke="#00EBAB" stroke-width="1.24396"/>
<rect x="369.378" y="83.622" width="40.756" height="40.756" transform="rotate(90 369.378 83.622)" stroke="#00EBAB" stroke-width="1.24396"/>
<rect x="203.378" y="83.622" width="40.756" height="40.756" transform="rotate(90 203.378 83.622)" stroke="#00EBAB" stroke-width="1.24396"/>
<rect x="286.378" y="83.622" width="40.756" height="40.756" transform="rotate(90 286.378 83.622)" stroke="#00EBAB" stroke-width="1.24396"/>
<rect x="119.378" y="83.622" width="40.756" height="40.756" transform="rotate(90 119.378 83.622)" stroke="#00EBAB" stroke-width="1.24396"/>
<rect x="411.378" y="42.622" width="40.756" height="40.756" transform="rotate(90 411.378 42.622)" stroke="#00EBAB" stroke-width="1.24396"/>
<rect x="453.378" y="42.622" width="40.756" height="40.756" transform="rotate(90 453.378 42.622)" stroke="#00EBAB" stroke-width="1.24396"/>
<rect x="494.378" y="42.622" width="40.756" height="40.756" transform="rotate(90 494.378 42.622)" stroke="#00EBAB" stroke-width="1.24396"/>
<rect x="244.378" y="42.622" width="40.756" height="40.756" transform="rotate(90 244.378 42.622)" stroke="#00EBAB" stroke-width="1.24396"/>
<rect x="327.378" y="42.622" width="40.756" height="40.756" transform="rotate(90 327.378 42.622)" stroke="#00EBAB" stroke-width="1.24396"/>
<rect x="161.378" y="42.622" width="40.756" height="40.756" transform="rotate(90 161.378 42.622)" stroke="#00EBAB" stroke-width="1.24396"/>
<rect x="369.378" y="42.622" width="40.756" height="40.756" transform="rotate(90 369.378 42.622)" stroke="#00EBAB" stroke-width="1.24396"/>
<rect x="203.378" y="42.622" width="40.756" height="40.756" transform="rotate(90 203.378 42.622)" stroke="#00EBAB" stroke-width="1.24396"/>
<rect x="286.378" y="42.622" width="40.756" height="40.756" transform="rotate(90 286.378 42.622)" stroke="#00EBAB" stroke-width="1.24396"/>
<rect x="119.378" y="42.622" width="40.756" height="40.756" transform="rotate(90 119.378 42.622)" stroke="#00EBAB" stroke-width="1.24396"/>
<rect x="411.378" y="125.622" width="40.756" height="40.756" transform="rotate(90 411.378 125.622)" stroke="#00EBAB" stroke-width="1.24396"/>
<rect x="453.378" y="125.622" width="40.756" height="40.756" transform="rotate(90 453.378 125.622)" stroke="#00EBAB" stroke-width="1.24396"/>
<rect x="494.378" y="125.622" width="40.756" height="40.756" transform="rotate(90 494.378 125.622)" stroke="#00EBAB" stroke-width="1.24396"/>
<rect x="244.378" y="125.622" width="40.756" height="40.756" transform="rotate(90 244.378 125.622)" stroke="#00EBAB" stroke-width="1.24396"/>
<rect x="327.378" y="125.622" width="40.756" height="40.756" transform="rotate(90 327.378 125.622)" stroke="#00EBAB" stroke-width="1.24396"/>
<rect x="161.378" y="125.622" width="40.756" height="40.756" transform="rotate(90 161.378 125.622)" stroke="#00EBAB" stroke-width="1.24396"/>
<rect x="369.378" y="125.622" width="40.756" height="40.756" transform="rotate(90 369.378 125.622)" stroke="#00EBAB" stroke-width="1.24396"/>
<rect x="203.378" y="125.622" width="40.756" height="40.756" transform="rotate(90 203.378 125.622)" stroke="#00EBAB" stroke-width="1.24396"/>
<rect x="286.378" y="125.622" width="40.756" height="40.756" transform="rotate(90 286.378 125.622)" stroke="#00EBAB" stroke-width="1.24396"/>
<rect x="119.378" y="125.622" width="40.756" height="40.756" transform="rotate(90 119.378 125.622)" stroke="#00EBAB" stroke-width="1.24396"/>
<rect x="43.378" y="357.622" width="40.756" height="40.756" transform="rotate(90 43.378 357.622)" stroke="#6C8606" stroke-width="1.24396"/>
<rect x="41.378" y="434.622" width="40.756" height="40.756" transform="rotate(90 41.378 434.622)" stroke="#CAAB0B" stroke-width="1.24396"/>
<rect x="41.378" y="475.622" width="40.756" height="40.756" transform="rotate(90 41.378 475.622)" stroke="#CAAB0B" stroke-width="1.24396"/>
<rect x="71.378" y="287.622" width="40.756" height="40.756" transform="rotate(90 71.378 287.622)" stroke="#920C95" stroke-width="1.24396"/>
<rect x="113.378" y="287.622" width="40.756" height="40.756" transform="rotate(90 113.378 287.622)" stroke="#920C95" stroke-width="1.24396"/>
<rect x="113.378" y="245.622" width="40.756" height="40.756" transform="rotate(90 113.378 245.622)" stroke="#920C95" stroke-width="1.24396"/>
<rect x="71.378" y="245.622" width="40.756" height="40.756" transform="rotate(90 71.378 245.622)" stroke="#920C95" stroke-width="1.24396"/>
<rect x="113.378" y="329.622" width="40.756" height="40.756" transform="rotate(90 113.378 329.622)" stroke="#920C95" stroke-width="1.24396"/>
<rect x="113.378" y="371.622" width="40.756" height="40.756" transform="rotate(90 113.378 371.622)" stroke="#920C95" stroke-width="1.24396"/>
<rect x="113.378" y="412.622" width="40.756" height="40.756" transform="rotate(90 113.378 412.622)" stroke="#920C95" stroke-width="1.24396"/>
<rect x="242.378" y="287.622" width="40.756" height="40.756" transform="rotate(90 242.378 287.622)" stroke="#00ACFF" stroke-width="1.24396"/>
<rect x="200.378" y="287.622" width="40.756" height="40.756" transform="rotate(90 200.378 287.622)" stroke="#00ACFF" stroke-width="1.24396"/>
<rect x="242.378" y="245.622" width="40.756" height="40.756" transform="rotate(90 242.378 245.622)" stroke="#00ACFF" stroke-width="1.24396"/>
<rect x="200.378" y="245.622" width="40.756" height="40.756" transform="rotate(90 200.378 245.622)" stroke="#00ACFF" stroke-width="1.24396"/>
<rect x="242.378" y="329.622" width="40.756" height="40.756" transform="rotate(90 242.378 329.622)" stroke="#00ACFF" stroke-width="1.24396"/>
<rect x="242.378" y="371.622" width="40.756" height="40.756" transform="rotate(90 242.378 371.622)" stroke="#00ACFF" stroke-width="1.24396"/>
<rect x="242.378" y="412.622" width="40.756" height="40.756" transform="rotate(90 242.378 412.622)" stroke="#00ACFF" stroke-width="1.24396"/>
<rect x="200.378" y="329.622" width="40.756" height="40.756" transform="rotate(90 200.378 329.622)" stroke="#00ACFF" stroke-width="1.24396"/>
<rect x="200.378" y="371.622" width="40.756" height="40.756" transform="rotate(90 200.378 371.622)" stroke="#00ACFF" stroke-width="1.24396"/>
<rect x="200.378" y="412.622" width="40.756" height="40.756" transform="rotate(90 200.378 412.622)" stroke="#00ACFF" stroke-width="1.24396"/>
<rect x="370.378" y="287.622" width="40.756" height="40.756" transform="rotate(90 370.378 287.622)" stroke="#05549D" stroke-width="1.24396"/>
<rect x="412.378" y="287.622" width="40.756" height="40.756" transform="rotate(90 412.378 287.622)" stroke="#05549D" stroke-width="1.24396"/>
<rect x="328.378" y="287.622" width="40.756" height="40.756" transform="rotate(90 328.378 287.622)" stroke="#05549D" stroke-width="1.24396"/>
<rect x="370.378" y="245.622" width="40.756" height="40.756" transform="rotate(90 370.378 245.622)" stroke="#05549D" stroke-width="1.24396"/>
<rect x="412.378" y="245.622" width="40.756" height="40.756" transform="rotate(90 412.378 245.622)" stroke="#05549D" stroke-width="1.24396"/>
<rect x="328.378" y="245.622" width="40.756" height="40.756" transform="rotate(90 328.378 245.622)" stroke="#05549D" stroke-width="1.24396"/>
<rect x="370.378" y="329.622" width="40.756" height="40.756" transform="rotate(90 370.378 329.622)" stroke="#05549D" stroke-width="1.24396"/>
<rect x="370.378" y="371.622" width="40.756" height="40.756" transform="rotate(90 370.378 371.622)" stroke="#05549D" stroke-width="1.24396"/>
<rect x="370.378" y="412.622" width="40.756" height="40.756" transform="rotate(90 370.378 412.622)" stroke="#05549D" stroke-width="1.24396"/>
<rect x="412.378" y="329.622" width="40.756" height="40.756" transform="rotate(90 412.378 329.622)" stroke="#05549D" stroke-width="1.24396"/>
<rect x="328.378" y="329.622" width="40.756" height="40.756" transform="rotate(90 328.378 329.622)" stroke="#05549D" stroke-width="1.24396"/>
<rect x="328.378" y="371.622" width="40.756" height="40.756" transform="rotate(90 328.378 371.622)" stroke="#05549D" stroke-width="1.24396"/>
<rect x="328.378" y="412.622" width="40.756" height="40.756" transform="rotate(90 328.378 412.622)" stroke="#05549D" stroke-width="1.24396"/>
<rect x="501.378" y="312.622" width="40.756" height="40.756" transform="rotate(90 501.378 312.622)" stroke="#006549" stroke-width="1.24396"/>
<rect x="542.378" y="312.622" width="40.756" height="40.756" transform="rotate(90 542.378 312.622)" stroke="#006549" stroke-width="1.24396"/>
<rect x="584.378" y="312.622" width="40.756" height="40.756" transform="rotate(90 584.378 312.622)" stroke="#006549" stroke-width="1.24396"/>
<rect x="501.378" y="270.622" width="40.756" height="40.756" transform="rotate(90 501.378 270.622)" stroke="#006549" stroke-width="1.24396"/>
<rect x="542.378" y="270.622" width="40.756" height="40.756" transform="rotate(90 542.378 270.622)" stroke="#006549" stroke-width="1.24396"/>
<rect x="584.378" y="270.622" width="40.756" height="40.756" transform="rotate(90 584.378 270.622)" stroke="#006549" stroke-width="1.24396"/>
<rect x="501.378" y="354.622" width="40.756" height="40.756" transform="rotate(90 501.378 354.622)" stroke="#006549" stroke-width="1.24396"/>
<rect x="542.378" y="354.622" width="40.756" height="40.756" transform="rotate(90 542.378 354.622)" stroke="#006549" stroke-width="1.24396"/>
<rect x="584.378" y="354.622" width="40.756" height="40.756" transform="rotate(90 584.378 354.622)" stroke="#006549" stroke-width="1.24396"/>
<rect x="501.378" y="395.622" width="40.756" height="40.756" transform="rotate(90 501.378 395.622)" stroke="#006549" stroke-width="1.24396"/>
<rect x="501.378" y="437.622" width="40.756" height="40.756" transform="rotate(90 501.378 437.622)" stroke="#006549" stroke-width="1.24396"/>
<rect x="542.378" y="395.622" width="40.756" height="40.756" transform="rotate(90 542.378 395.622)" stroke="#006549" stroke-width="1.24396"/>
<rect x="584.378" y="395.622" width="40.756" height="40.756" transform="rotate(90 584.378 395.622)" stroke="#006549" stroke-width="1.24396"/>
<rect x="542.378" y="437.622" width="40.756" height="40.756" transform="rotate(90 542.378 437.622)" stroke="#006549" stroke-width="1.24396"/>
<rect x="584.378" y="437.622" width="40.756" height="40.756" transform="rotate(90 584.378 437.622)" stroke="#006549" stroke-width="1.24396"/>
<rect x="459.378" y="395.622" width="40.756" height="40.756" transform="rotate(90 459.378 395.622)" stroke="#006549" stroke-width="1.24396"/>
<rect x="459.378" y="437.622" width="40.756" height="40.756" transform="rotate(90 459.378 437.622)" stroke="#006549" stroke-width="1.24396"/>
</svg>
