<svg width="348" height="478" viewBox="0 0 348 478" fill="none" xmlns="http://www.w3.org/2000/svg">
<rect x="269.378" y="0.621978" width="30.756" height="30.756" transform="rotate(90 269.378 0.621978)" stroke="#00EBAB" stroke-width="1.24396"/>
<rect x="301.378" y="0.621978" width="30.756" height="30.756" transform="rotate(90 301.378 0.621978)" stroke="#00EBAB" stroke-width="1.24396"/>
<rect x="333.378" y="0.621978" width="30.756" height="30.756" transform="rotate(90 333.378 0.621978)" stroke="#00EBAB" stroke-width="1.24396"/>
<rect x="141.378" y="0.621978" width="30.756" height="30.756" transform="rotate(90 141.378 0.621978)" stroke="#00EBAB" stroke-width="1.24396"/>
<rect x="269.378" y="128.622" width="30.756" height="30.756" transform="rotate(90 269.378 128.622)" stroke="#00EBAB" stroke-width="1.24396"/>
<rect x="301.378" y="128.622" width="30.756" height="30.756" transform="rotate(90 301.378 128.622)" stroke="#00EBAB" stroke-width="1.24396"/>
<rect x="333.378" y="128.622" width="30.756" height="30.756" transform="rotate(90 333.378 128.622)" stroke="#00EBAB" stroke-width="1.24396"/>
<rect x="141.378" y="128.622" width="30.756" height="30.756" transform="rotate(90 141.378 128.622)" stroke="#00EBAB" stroke-width="1.24396"/>
<rect x="205.378" y="0.621978" width="30.756" height="30.756" transform="rotate(90 205.378 0.621978)" stroke="#00EBAB" stroke-width="1.24396"/>
<rect x="77.378" y="0.621978" width="30.756" height="30.756" transform="rotate(90 77.378 0.621978)" stroke="#00EBAB" stroke-width="1.24396"/>
<rect x="205.378" y="128.622" width="30.756" height="30.756" transform="rotate(90 205.378 128.622)" stroke="#00EBAB" stroke-width="1.24396"/>
<rect x="77.378" y="128.622" width="30.756" height="30.756" transform="rotate(90 77.378 128.622)" stroke="#00EBAB" stroke-width="1.24396"/>
<rect x="237.378" y="0.621978" width="30.756" height="30.756" transform="rotate(90 237.378 0.621978)" stroke="#00EBAB" stroke-width="1.24396"/>
<rect x="109.378" y="0.621978" width="30.756" height="30.756" transform="rotate(90 109.378 0.621978)" stroke="#00EBAB" stroke-width="1.24396"/>
<rect x="237.378" y="128.622" width="30.756" height="30.756" transform="rotate(90 237.378 128.622)" stroke="#00EBAB" stroke-width="1.24396"/>
<rect x="109.378" y="128.622" width="30.756" height="30.756" transform="rotate(90 109.378 128.622)" stroke="#00EBAB" stroke-width="1.24396"/>
<rect x="173.378" y="0.621978" width="30.756" height="30.756" transform="rotate(90 173.378 0.621978)" stroke="#00EBAB" stroke-width="1.24396"/>
<rect x="45.378" y="0.621978" width="30.756" height="30.756" transform="rotate(90 45.378 0.621978)" stroke="#00EBAB" stroke-width="1.24396"/>
<rect x="173.378" y="128.622" width="30.756" height="30.756" transform="rotate(90 173.378 128.622)" stroke="#00EBAB" stroke-width="1.24396"/>
<rect x="45.378" y="128.622" width="30.756" height="30.756" transform="rotate(90 45.378 128.622)" stroke="#00EBAB" stroke-width="1.24396"/>
<rect x="269.378" y="64.622" width="30.756" height="30.756" transform="rotate(90 269.378 64.622)" stroke="#00EBAB" stroke-width="1.24396"/>
<rect x="301.378" y="64.622" width="30.756" height="30.756" transform="rotate(90 301.378 64.622)" stroke="#00EBAB" stroke-width="1.24396"/>
<rect x="333.378" y="64.622" width="30.756" height="30.756" transform="rotate(90 333.378 64.622)" stroke="#00EBAB" stroke-width="1.24396"/>
<rect x="141.378" y="64.622" width="30.756" height="30.756" transform="rotate(90 141.378 64.622)" stroke="#00EBAB" stroke-width="1.24396"/>
<rect x="205.378" y="64.622" width="30.756" height="30.756" transform="rotate(90 205.378 64.622)" stroke="#00EBAB" stroke-width="1.24396"/>
<rect x="77.378" y="64.622" width="30.756" height="30.756" transform="rotate(90 77.378 64.622)" stroke="#00EBAB" stroke-width="1.24396"/>
<rect x="237.378" y="64.622" width="30.756" height="30.756" transform="rotate(90 237.378 64.622)" stroke="#00EBAB" stroke-width="1.24396"/>
<rect x="109.378" y="64.622" width="30.756" height="30.756" transform="rotate(90 109.378 64.622)" stroke="#00EBAB" stroke-width="1.24396"/>
<rect x="173.378" y="64.622" width="30.756" height="30.756" transform="rotate(90 173.378 64.622)" stroke="#00EBAB" stroke-width="1.24396"/>
<rect x="45.378" y="64.622" width="30.756" height="30.756" transform="rotate(90 45.378 64.622)" stroke="#00EBAB" stroke-width="1.24396"/>
<rect x="269.378" y="32.622" width="30.756" height="30.756" transform="rotate(90 269.378 32.622)" stroke="#00EBAB" stroke-width="1.24396"/>
<rect x="301.378" y="32.622" width="30.756" height="30.756" transform="rotate(90 301.378 32.622)" stroke="#00EBAB" stroke-width="1.24396"/>
<rect x="333.378" y="32.622" width="30.756" height="30.756" transform="rotate(90 333.378 32.622)" stroke="#00EBAB" stroke-width="1.24396"/>
<rect x="141.378" y="32.622" width="30.756" height="30.756" transform="rotate(90 141.378 32.622)" stroke="#00EBAB" stroke-width="1.24396"/>
<rect x="205.378" y="32.622" width="30.756" height="30.756" transform="rotate(90 205.378 32.622)" stroke="#00EBAB" stroke-width="1.24396"/>
<rect x="77.378" y="32.622" width="30.756" height="30.756" transform="rotate(90 77.378 32.622)" stroke="#00EBAB" stroke-width="1.24396"/>
<rect x="237.378" y="32.622" width="30.756" height="30.756" transform="rotate(90 237.378 32.622)" stroke="#00EBAB" stroke-width="1.24396"/>
<rect x="109.378" y="32.622" width="30.756" height="30.756" transform="rotate(90 109.378 32.622)" stroke="#00EBAB" stroke-width="1.24396"/>
<rect x="173.378" y="32.622" width="30.756" height="30.756" transform="rotate(90 173.378 32.622)" stroke="#00EBAB" stroke-width="1.24396"/>
<rect x="45.378" y="32.622" width="30.756" height="30.756" transform="rotate(90 45.378 32.622)" stroke="#00EBAB" stroke-width="1.24396"/>
<rect x="269.378" y="96.622" width="30.756" height="30.756" transform="rotate(90 269.378 96.622)" stroke="#00EBAB" stroke-width="1.24396"/>
<rect x="301.378" y="96.622" width="30.756" height="30.756" transform="rotate(90 301.378 96.622)" stroke="#00EBAB" stroke-width="1.24396"/>
<rect x="333.378" y="96.622" width="30.756" height="30.756" transform="rotate(90 333.378 96.622)" stroke="#00EBAB" stroke-width="1.24396"/>
<rect x="141.378" y="96.622" width="30.756" height="30.756" transform="rotate(90 141.378 96.622)" stroke="#00EBAB" stroke-width="1.24396"/>
<rect x="205.378" y="96.622" width="30.756" height="30.756" transform="rotate(90 205.378 96.622)" stroke="#00EBAB" stroke-width="1.24396"/>
<rect x="77.378" y="96.622" width="30.756" height="30.756" transform="rotate(90 77.378 96.622)" stroke="#00EBAB" stroke-width="1.24396"/>
<rect x="237.378" y="96.622" width="30.756" height="30.756" transform="rotate(90 237.378 96.622)" stroke="#00EBAB" stroke-width="1.24396"/>
<rect x="109.378" y="96.622" width="30.756" height="30.756" transform="rotate(90 109.378 96.622)" stroke="#00EBAB" stroke-width="1.24396"/>
<rect x="173.378" y="96.622" width="30.756" height="30.756" transform="rotate(90 173.378 96.622)" stroke="#00EBAB" stroke-width="1.24396"/>
<rect x="45.378" y="96.622" width="30.756" height="30.756" transform="rotate(90 45.378 96.622)" stroke="#00EBAB" stroke-width="1.24396"/>
<rect x="157.378" y="222.622" width="30.756" height="30.756" transform="rotate(90 157.378 222.622)" stroke="#920C95" stroke-width="1.24396"/>
<rect x="63.378" y="414.622" width="30.756" height="30.756" transform="rotate(90 63.378 414.622)" stroke="#6C8606" stroke-width="1.24396"/>
<rect x="125.378" y="414.622" width="30.756" height="30.756" transform="rotate(90 125.378 414.622)" stroke="#CAAB0B" stroke-width="1.24396"/>
<rect x="125.378" y="446.622" width="30.756" height="30.756" transform="rotate(90 125.378 446.622)" stroke="#CAAB0B" stroke-width="1.24396"/>
<rect x="94.622" y="317.378" width="30.756" height="30.756" transform="rotate(-90 94.622 317.378)" stroke="#920C95" stroke-width="1.24396"/>
<rect x="94.622" y="349.378" width="30.756" height="30.756" transform="rotate(-90 94.622 349.378)" stroke="#920C95" stroke-width="1.24396"/>
<rect x="126.622" y="221.378" width="30.756" height="30.756" transform="rotate(-90 126.622 221.378)" stroke="#920C95" stroke-width="1.24396"/>
<rect x="94.622" y="285.378" width="30.756" height="30.756" transform="rotate(-90 94.622 285.378)" stroke="#920C95" stroke-width="1.24396"/>
<rect x="94.622" y="253.378" width="30.756" height="30.756" transform="rotate(-90 94.622 253.378)" stroke="#920C95" stroke-width="1.24396"/>
<rect x="94.622" y="221.378" width="30.756" height="30.756" transform="rotate(-90 94.622 221.378)" stroke="#920C95" stroke-width="1.24396"/>
<rect x="63.378" y="222.622" width="30.756" height="30.756" transform="rotate(90 63.378 222.622)" stroke="#00ACFF" stroke-width="1.24396"/>
<rect x="31.378" y="222.622" width="30.756" height="30.756" transform="rotate(90 31.378 222.622)" stroke="#00ACFF" stroke-width="1.24396"/>
<rect x="63.378" y="190.622" width="30.756" height="30.756" transform="rotate(90 63.378 190.622)" stroke="#00ACFF" stroke-width="1.24396"/>
<rect x="31.378" y="190.622" width="30.756" height="30.756" transform="rotate(90 31.378 190.622)" stroke="#00ACFF" stroke-width="1.24396"/>
<rect x="63.378" y="254.622" width="30.756" height="30.756" transform="rotate(90 63.378 254.622)" stroke="#00ACFF" stroke-width="1.24396"/>
<rect x="63.378" y="286.622" width="30.756" height="30.756" transform="rotate(90 63.378 286.622)" stroke="#00ACFF" stroke-width="1.24396"/>
<rect x="63.378" y="318.622" width="30.756" height="30.756" transform="rotate(90 63.378 318.622)" stroke="#00ACFF" stroke-width="1.24396"/>
<rect x="31.378" y="254.622" width="30.756" height="30.756" transform="rotate(90 31.378 254.622)" stroke="#00ACFF" stroke-width="1.24396"/>
<rect x="31.378" y="286.622" width="30.756" height="30.756" transform="rotate(90 31.378 286.622)" stroke="#00ACFF" stroke-width="1.24396"/>
<rect x="31.378" y="318.622" width="30.756" height="30.756" transform="rotate(90 31.378 318.622)" stroke="#00ACFF" stroke-width="1.24396"/>
<rect x="315.378" y="253.378" width="30.756" height="30.756" transform="rotate(180 315.378 253.378)" stroke="#05549D" stroke-width="1.24396"/>
<rect x="315.378" y="285.378" width="30.756" height="30.756" transform="rotate(180 315.378 285.378)" stroke="#05549D" stroke-width="1.24396"/>
<rect x="315.378" y="221.378" width="30.756" height="30.756" transform="rotate(180 315.378 221.378)" stroke="#05549D" stroke-width="1.24396"/>
<rect x="347.378" y="253.378" width="30.756" height="30.756" transform="rotate(180 347.378 253.378)" stroke="#05549D" stroke-width="1.24396"/>
<rect x="347.378" y="285.378" width="30.756" height="30.756" transform="rotate(180 347.378 285.378)" stroke="#05549D" stroke-width="1.24396"/>
<rect x="347.378" y="221.378" width="30.756" height="30.756" transform="rotate(180 347.378 221.378)" stroke="#05549D" stroke-width="1.24396"/>
<rect x="283.378" y="253.378" width="30.756" height="30.756" transform="rotate(180 283.378 253.378)" stroke="#05549D" stroke-width="1.24396"/>
<rect x="251.378" y="253.378" width="30.756" height="30.756" transform="rotate(180 251.378 253.378)" stroke="#05549D" stroke-width="1.24396"/>
<rect x="219.378" y="253.378" width="30.756" height="30.756" transform="rotate(180 219.378 253.378)" stroke="#05549D" stroke-width="1.24396"/>
<rect x="283.378" y="285.378" width="30.756" height="30.756" transform="rotate(180 283.378 285.378)" stroke="#05549D" stroke-width="1.24396"/>
<rect x="283.378" y="221.378" width="30.756" height="30.756" transform="rotate(180 283.378 221.378)" stroke="#05549D" stroke-width="1.24396"/>
<rect x="251.378" y="221.378" width="30.756" height="30.756" transform="rotate(180 251.378 221.378)" stroke="#05549D" stroke-width="1.24396"/>
<rect x="219.378" y="221.378" width="30.756" height="30.756" transform="rotate(180 219.378 221.378)" stroke="#05549D" stroke-width="1.24396"/>
<rect x="284.378" y="349.378" width="30.756" height="30.756" transform="rotate(180 284.378 349.378)" stroke="#006549" stroke-width="1.24396"/>
<rect x="284.378" y="381.378" width="30.756" height="30.756" transform="rotate(180 284.378 381.378)" stroke="#006549" stroke-width="1.24396"/>
<rect x="284.378" y="413.378" width="30.756" height="30.756" transform="rotate(180 284.378 413.378)" stroke="#006549" stroke-width="1.24396"/>
<rect x="316.378" y="349.378" width="30.756" height="30.756" transform="rotate(180 316.378 349.378)" stroke="#006549" stroke-width="1.24396"/>
<rect x="316.378" y="381.378" width="30.756" height="30.756" transform="rotate(180 316.378 381.378)" stroke="#006549" stroke-width="1.24396"/>
<rect x="316.378" y="413.378" width="30.756" height="30.756" transform="rotate(180 316.378 413.378)" stroke="#006549" stroke-width="1.24396"/>
<rect x="252.378" y="349.378" width="30.756" height="30.756" transform="rotate(180 252.378 349.378)" stroke="#006549" stroke-width="1.24396"/>
<rect x="252.378" y="381.378" width="30.756" height="30.756" transform="rotate(180 252.378 381.378)" stroke="#006549" stroke-width="1.24396"/>
<rect x="252.378" y="413.378" width="30.756" height="30.756" transform="rotate(180 252.378 413.378)" stroke="#006549" stroke-width="1.24396"/>
<rect x="221.378" y="349.378" width="30.756" height="30.756" transform="rotate(180 221.378 349.378)" stroke="#006549" stroke-width="1.24396"/>
<rect x="189.378" y="349.378" width="30.756" height="30.756" transform="rotate(180 189.378 349.378)" stroke="#006549" stroke-width="1.24396"/>
<rect x="221.378" y="381.378" width="30.756" height="30.756" transform="rotate(180 221.378 381.378)" stroke="#006549" stroke-width="1.24396"/>
<rect x="221.378" y="413.378" width="30.756" height="30.756" transform="rotate(180 221.378 413.378)" stroke="#006549" stroke-width="1.24396"/>
<rect x="189.378" y="381.378" width="30.756" height="30.756" transform="rotate(180 189.378 381.378)" stroke="#006549" stroke-width="1.24396"/>
<rect x="189.378" y="413.378" width="30.756" height="30.756" transform="rotate(180 189.378 413.378)" stroke="#006549" stroke-width="1.24396"/>
<rect x="221.378" y="317.378" width="30.756" height="30.756" transform="rotate(180 221.378 317.378)" stroke="#006549" stroke-width="1.24396"/>
<rect x="189.378" y="317.378" width="30.756" height="30.756" transform="rotate(180 189.378 317.378)" stroke="#006549" stroke-width="1.24396"/>
</svg>
