<svg width="26" height="30" viewBox="0 0 26 30" fill="none" xmlns="http://www.w3.org/2000/svg">
<g clip-path="url(#clip0_2106_11875)">
<path d="M16.2883 13.7455L18.4325 10.0075L24.2112 19.2571L24.2139 21.0325L24.1949 8.81763C24.1813 8.51877 24.0273 8.24599 23.7809 8.08492L13.3777 1.93466C13.134 1.81176 12.826 1.81269 12.5832 1.93838C12.5506 1.95514 12.5198 1.97376 12.4899 1.99331L12.4536 2.01659L2.35567 8.03092L2.31672 8.04954C2.26599 8.07375 2.21526 8.10354 2.16724 8.13892C1.9761 8.28044 1.84837 8.48898 1.8076 8.72267C1.80126 8.75804 1.79673 8.79435 1.79492 8.83066L1.81123 18.7841L7.19313 10.2104C7.87074 9.07366 9.34734 8.70777 10.718 8.72732L12.3268 8.77108L2.84757 24.3925L3.96453 25.0536L13.5561 8.78691L17.7957 8.77108L8.22947 25.4483L12.2163 27.8047L12.6928 28.0859C12.8939 28.1696 13.1322 28.1743 13.3351 28.0989L23.8842 21.8155L21.8677 23.0165L16.2892 13.7445L16.2883 13.7455ZM17.1063 25.8524L13.0796 19.3576L15.5373 15.0712L20.8259 23.6375L17.1063 25.8524Z" fill="#2D374B"/>
<path d="M13.0801 19.3576L17.1068 25.8523L20.8264 23.6375L15.5387 15.0712L13.0801 19.3576Z" fill="#28A0F0"/>
<path d="M24.2128 21.0316L24.21 19.2561L18.4314 10.0065L16.2871 13.7445L21.8656 23.0165L23.8821 21.8155C24.0796 21.6507 24.2001 21.4077 24.2119 21.147V21.0316H24.2128Z" fill="#28A0F0"/>
<path d="M0 22.7055L2.84812 24.3925L12.3265 8.77106L10.7176 8.7273C9.34699 8.70775 7.87039 9.07364 7.19278 10.2104L1.81088 18.7841L0 21.6432V22.7055Z" fill="white"/>
<path d="M17.797 8.77106L13.5575 8.78688L3.9668 25.0535L7.3186 27.0375L8.23083 25.4483L17.797 8.77106Z" fill="white"/>
<path d="M26 8.74865C25.9647 7.83719 25.4845 7.00301 24.7327 6.51795L14.1935 0.288547C13.4498 -0.0959609 12.5203 -0.0968919 11.7757 0.288547C11.6878 0.334167 1.52643 6.3904 1.52643 6.3904C1.38601 6.45929 1.25013 6.54215 1.12331 6.63619C0.451134 7.13055 0.0425769 7.89864 0 8.74307V21.6432L1.81088 18.784L1.79457 8.83058C1.79638 8.79427 1.80091 8.75889 1.80725 8.72352C1.84802 8.4889 1.97575 8.28035 2.16689 8.13884C2.21491 8.10346 12.5493 1.95599 12.5828 1.9383C12.8256 1.81261 13.1345 1.81168 13.3773 1.93458L23.7806 8.08484C24.027 8.24591 24.181 8.51869 24.1946 8.81755V21.1479C24.1819 21.4095 24.0813 21.6516 23.8838 21.8163L21.8673 23.0173L20.8265 23.6374L17.1069 25.8532L13.3347 28.0997C13.1318 28.1752 12.8945 28.1714 12.6924 28.0867L8.22912 25.4482L7.31779 27.0375L11.3282 29.4106C11.4604 29.4879 11.5791 29.5568 11.676 29.6126C11.8264 29.6992 11.9288 29.7569 11.965 29.7746C12.2504 29.9171 12.6598 29.9999 13.0294 29.9999C13.3682 29.9999 13.6989 29.9357 14.0114 29.81L24.9682 23.2892C25.5969 22.7883 25.9674 22.0333 26 21.2149V8.74865Z" fill="#96BEDC"/>
</g>
<defs>
<clipPath id="clip0_2106_11875">
<rect width="26" height="30" fill="white"/>
</clipPath>
</defs>
</svg>
