<svg width="28" height="30" viewBox="0 0 28 30" fill="none" xmlns="http://www.w3.org/2000/svg">
<g clip-path="url(#clip0_2106_12270)">
<ellipse cx="14.4237" cy="15" rx="11.8788" ry="11.6667" fill="white"/>
<path fill-rule="evenodd" clip-rule="evenodd" d="M28 15C28 22.8241 21.7321 29.1667 14 29.1667C6.26801 29.1667 0 22.8241 0 15C0 7.17597 6.26801 0.833344 14 0.833344C21.7321 0.833344 28 7.17597 28 15ZM10.0328 20.6376H7.31579C6.74487 20.6376 6.46285 20.6376 6.2909 20.5263C6.10517 20.4045 5.99168 20.2026 5.97793 19.9798C5.9676 19.7746 6.10862 19.524 6.39064 19.0228L13.0993 7.05715C13.3847 6.54904 13.5292 6.29498 13.7114 6.20102C13.9075 6.1001 14.1414 6.1001 14.3374 6.20102C14.5197 6.29498 14.6641 6.54904 14.9496 7.05715L16.3287 9.49329L16.3358 9.50572C16.6441 10.0508 16.8004 10.3273 16.8687 10.6174C16.9443 10.9341 16.9443 11.2682 16.8687 11.5849C16.7999 11.8772 16.6451 12.1556 16.3322 12.709L12.8083 19.0124L12.7992 19.0285C12.4888 19.5781 12.3315 19.8567 12.1136 20.0668C11.8763 20.2966 11.5908 20.4635 11.2778 20.5576C10.9923 20.6376 10.6725 20.6376 10.0328 20.6376ZM16.8941 20.6376H20.7873C21.3617 20.6376 21.6506 20.6376 21.8227 20.5229C22.0083 20.4011 22.1252 20.1956 22.1357 19.9731C22.1455 19.7744 22.0076 19.5335 21.7373 19.0615C21.728 19.0454 21.7186 19.0291 21.7091 19.0124L19.759 15.6367L19.7368 15.5986C19.4628 15.1297 19.3245 14.8929 19.1468 14.8014C18.9509 14.7005 18.7203 14.7005 18.5243 14.8014C18.3455 14.8954 18.2011 15.1425 17.9156 15.6401L15.9724 19.0159L15.9658 19.0275C15.6813 19.5244 15.5391 19.7727 15.5494 19.9765C15.5632 20.1992 15.6766 20.4045 15.8624 20.5263C16.0309 20.6376 16.3198 20.6376 16.8941 20.6376Z" fill="#E84142"/>
</g>
<defs>
<clipPath id="clip0_2106_12270">
<rect width="28" height="30" fill="white"/>
</clipPath>
</defs>
</svg>
