<svg width="189" height="40" viewBox="0 0 189 40" fill="none" xmlns="http://www.w3.org/2000/svg">
<path d="M62.4884 22.8487H59.6794V20.0434V17.2422V14.437H62.4884H65.3014H68.1105V11.6317H65.3014H62.4884H59.6794H56.8664V13.7179V14.437V17.2422V20.0434V22.8487V25.6499H59.6794H62.4884H65.3014H68.1105V22.8487H65.3014H62.4884Z" fill="#00EBAB"/>
<path d="M68.1105 14.437V17.2422V20.0434V22.8487H70.9235V20.0434V17.2422V14.437H68.1105Z" fill="#00EBAB"/>
<path d="M84.9687 11.6317H82.1557H79.3427H76.5337H73.7207V14.437H76.5337H79.3427H82.1557H84.9687V17.2422H82.1557H79.3427H76.5337H73.7207V20.0434V22.8487V25.6499H76.5337H79.3427H82.1557H84.9687H87.7778V22.8487H84.9687H82.1557H79.3427H76.5337V20.0434H79.3427H82.1557H84.9687H87.7778V17.2422V14.437V13.5717V11.6317H84.9687Z" fill="#00EBAB"/>
<path d="M101.823 11.6317H99.01H96.197H93.384H90.571V13.7139V14.433V17.2382V20.0434V22.8487V25.6539H93.384H96.197H99.01H101.823H104.636V22.8487V20.0434V17.2382V14.433V13.7139V11.6317H101.823ZM101.823 17.2422V20.0474H99.01V22.8526H96.197H93.384V20.0474V17.2422V14.437H96.197H99.01H101.823V17.2422Z" fill="#00EBAB"/>
<path d="M135.532 11.6317H132.719H129.906H127.093H124.28V13.7139V14.433V17.2382V20.0434V22.8487V25.6539H127.093V22.8487V20.0434H129.906H132.719H135.532V22.8487V25.6539H138.345V22.8487V20.0434V17.2382V14.433V13.7139V11.6317H135.532ZM135.532 17.2422H132.719H129.906H127.093V14.437H129.906H132.719H135.532V17.2422Z" fill="#00EBAB"/>
<path d="M152.386 11.6317H149.573H146.76H143.947H141.134V13.7139V14.433V17.2382V20.0434V22.8487V25.6539H143.947V22.8487V20.0434H146.76H149.573V22.8487H152.386V20.0434H155.199V17.2382V14.433V13.7139V11.6317H152.386ZM152.386 17.2422H149.573H146.76H143.947V14.437H146.76H149.573H152.386V17.2422Z" fill="#00EBAB"/>
<path d="M155.199 22.8487H152.386V25.6539H155.199V22.8487Z" fill="#00EBAB"/>
<path d="M163.618 14.437H166.431H169.244H172.053V11.6317H169.244H166.431H163.618H160.809H157.996V13.7179V14.437V17.2422V20.0434V22.8487V25.6499H160.809H163.618H166.431H169.244H172.053V22.8487H169.244H166.431H163.618H160.809V20.0434H163.618H166.431H169.244H172.053V17.2422H169.244H166.431H163.618H160.809V14.437H163.618Z" fill="#00EBAB"/>
<path d="M118.677 11.6317V14.437V15.156V17.2422V20.0434V22.8487H115.864H113.055H110.242V20.0434V17.2422V15.156V14.437V11.6317H107.433V14.437V15.156V17.2422V20.0434V22.8487V25.6499H110.242H113.055H115.864H118.677H121.486V22.8487V20.0434V17.2422V15.156V14.437V11.6317H118.677Z" fill="#00EBAB"/>
<path d="M186.098 14.437V17.2422V20.0434V22.8487H188.907V20.0434V17.2422V14.437H186.098Z" fill="#00EBAB"/>
<path d="M177.663 17.2422V14.437H180.476H183.285H186.098V11.6317H183.285H180.476H177.663H174.854V13.7179V14.437V17.2422V20.0434V22.8487V25.6499H177.663H180.476H183.285H186.098V22.8487H183.285H180.476H177.663V20.0434V17.2422Z" fill="#00EBAB"/>
<path d="M40.4255 0H0V40H40.4255V0Z" fill="#00EBAB"/>
<path d="M24.2178 16.0371V18.6804V21.3196V23.9629H26.8852V21.3196V18.6804V16.0371H24.2178Z" fill="black"/>
<path d="M16.2038 18.6804V16.0371H18.8751H21.5465H24.2178V13.3939H21.5465H18.8751H16.2038H13.5364V15.3576V16.0371V18.6804V21.3196V23.9629V26.6061H16.2038H18.8751H21.5465H24.2178V23.9629H21.5465H18.8751H16.2038V21.3196V18.6804Z" fill="black"/>
<path d="M29.6244 10.7388H26.9531V13.3821H29.6244V10.7388Z" fill="black"/>
</svg>
