<svg width="190" height="22" viewBox="0 0 190 22" fill="none" xmlns="http://www.w3.org/2000/svg">
<path d="M8.9892 16.9841H4.99742V12.9867V8.99487V4.99742H8.9892H12.9867H16.9785V1H12.9867H8.9892H4.99742H1V3.97275V4.99742V8.99487V12.9867V16.9841V20.9759H4.99742H8.9892H12.9867H16.9785V16.9841H12.9867H8.9892Z" fill="#00EBAB"/>
<path d="M16.9785 4.99756V8.99501V12.9868V16.9842H20.9759V12.9868V8.99501V4.99756H16.9785Z" fill="#00EBAB"/>
<path d="M40.9348 1H36.9373H32.9399H28.9481H24.9507V4.99742H28.9481H32.9399H36.9373H40.9348V8.99487H36.9373H32.9399H28.9481H24.9507V12.9867V16.9841V20.9759H28.9481H32.9399H36.9373H40.9348H44.9266V16.9841H40.9348H36.9373H32.9399H28.9481V12.9867H32.9399H36.9373H40.9348H44.9266V8.99487V4.99742V3.76441V1H40.9348Z" fill="#00EBAB"/>
<path d="M64.8857 1H60.8883H56.8909H52.8935H48.896V3.96712V4.99182V8.98924V12.9867V16.9841V20.9815H52.8935H56.8909H60.8883H64.8857H68.8832V16.9841V12.9867V8.98924V4.99182V3.96712V1H64.8857ZM64.8857 8.99487V12.9923H60.8883V16.9897H56.8909H52.8935V12.9923V8.99487V4.99742H56.8909H60.8883H64.8857V8.99487Z" fill="#00EBAB"/>
<path d="M112.788 1H108.79H104.793H100.795H96.7979V3.96712V4.99182V8.98924V12.9867V16.9841V20.9815H100.795V16.9841V12.9867H104.793H108.79H112.788V16.9841V20.9815H116.785V16.9841V12.9867V8.98924V4.99182V3.96712V1H112.788ZM112.788 8.99487H108.79H104.793H100.795V4.99742H104.793H108.79H112.788V8.99487Z" fill="#00EBAB"/>
<path d="M136.738 1H132.741H128.743H124.746H120.749V3.96712V4.99182V8.98924V12.9867V16.9841V20.9815H124.746V16.9841V12.9867H128.743H132.741V16.9841H136.738V12.9867H140.736V8.98924V4.99182V3.96712V1H136.738ZM136.738 8.99487H132.741H128.743H124.746V4.99742H128.743H132.741H136.738V8.99487Z" fill="#00EBAB"/>
<path d="M140.736 16.9839H136.738V20.9813H140.736V16.9839Z" fill="#00EBAB"/>
<path d="M152.7 4.99742H156.697H160.695H164.686V1H160.695H156.697H152.7H148.708H144.71V3.97275V4.99742V8.99487V12.9867V16.9841V20.9759H148.708H152.7H156.697H160.695H164.686V16.9841H160.695H156.697H152.7H148.708V12.9867H152.7H156.697H160.695H164.686V8.99487H160.695H156.697H152.7H148.708V4.99742H152.7Z" fill="#00EBAB"/>
<path d="M88.8364 1V4.99742V6.02212V8.99487V12.9867V16.9841H84.839H80.8471H76.8497V12.9867V8.99487V6.02212V4.99742V1H72.8579V4.99742V6.02212V8.99487V12.9867V16.9841V20.9759H76.8497H80.8471H84.839H88.8364H92.8282V16.9841V12.9867V8.99487V6.02212V4.99742V1H88.8364Z" fill="#00EBAB"/>
<path d="M184.646 4.99756V8.99501V12.9868V16.9842H188.637V12.9868V8.99501V4.99756H184.646Z" fill="#00EBAB"/>
<path d="M172.659 8.99487V4.99742H176.656H180.648H184.645V1H180.648H176.656H172.659H168.667V3.97275V4.99742V8.99487V12.9867V16.9841V20.9759H172.659H176.656H180.648H184.645V16.9841H180.648H176.656H172.659V12.9867V8.99487Z" fill="#00EBAB"/>
</svg>
