<svg width="19" height="19" viewBox="0 0 19 19" fill="none" xmlns="http://www.w3.org/2000/svg">
<path d="M10.4375 7.66016V14H8.74414V7.66016H10.4375ZM8.63867 6.00781C8.63867 5.76172 8.72461 5.55859 8.89648 5.39844C9.06836 5.23828 9.29883 5.1582 9.58789 5.1582C9.87305 5.1582 10.1016 5.23828 10.2734 5.39844C10.4492 5.55859 10.5371 5.76172 10.5371 6.00781C10.5371 6.25391 10.4492 6.45703 10.2734 6.61719C10.1016 6.77734 9.87305 6.85742 9.58789 6.85742C9.29883 6.85742 9.06836 6.77734 8.89648 6.61719C8.72461 6.45703 8.63867 6.25391 8.63867 6.00781Z" fill="#888B92"/>
<circle cx="9.5" cy="9.5" r="9" stroke="#888B92"/>
</svg>
