<svg xmlns="http://www.w3.org/2000/svg" width="489" height="90" fill="none"><rect width="489" height="90" fill="#1A152C" rx="10"/><path fill="#E3DBF7" d="m42.672 54-9.218-15.312c-.33-.55-.726-.902-1.342-.902-.616 0-1.034.352-1.364.902L21.552 54h3.19l7.26-12.276 3.564 5.984H30.66l-1.32 2.266h7.568L39.306 54h3.366Zm16.868-7.062c0 3.212-1.43 4.532-5.83 4.532s-5.83-1.32-5.83-4.532v-8.932h-2.882v8.932c0 4.95 2.464 7.282 8.624 7.282 6.204 0 8.646-2.332 8.646-7.282v-8.932H59.54v8.932ZM76.252 54c4.51 0 7.788-3.52 7.788-8.162 0-4.642-3.278-7.832-7.788-7.832h-9.261V54h9.261Zm-6.49-2.794V40.8h6.49c2.883 0 4.995 2.156 4.995 5.17s-2.112 5.236-4.995 5.236h-6.49ZM91.475 54V38.006H88.68V54h2.794Zm13.038 0V40.8h6.072v-2.794H95.646V40.8h6.072V54h2.794Zm24.414 0v-2.794h-11.528V40.8h11.506v-2.794h-14.278V54h14.3Zm-.616-6.952v-2.354h-8.866v2.354h8.866ZM142.781 54c4.51 0 7.788-3.52 7.788-8.162 0-4.642-3.278-7.832-7.788-7.832h-9.262V54h9.262Zm-6.49-2.794V40.8h6.49c2.882 0 4.994 2.156 4.994 5.17s-2.112 5.236-4.994 5.236h-6.49ZM175.734 54c3.124 0 5.148-1.914 5.148-4.84 0-1.87-1.056-3.146-2.508-3.608 1.188-.374 2.222-1.386 2.222-3.41 0-2.728-2.068-4.136-5.192-4.136H163.7V54h12.034Zm-.11-6.952c1.562 0 2.42.748 2.42 2.068 0 1.562-1.452 2.112-3.454 2.112h-8.096V40.8h7.854c2.068 0 3.41.264 3.41 1.958 0 1.386-.748 1.936-2.332 1.936h-6.908v2.354h7.106ZM193.961 54v-6.072l8.514-9.922h-3.564l-6.248 7.37-6.226-7.37h-3.762l8.492 9.922V54h2.794ZM290.65 51.084v-4.266h10.128c3.103 0 4.913-1.94 4.913-4.784 0-2.93-1.853-4.74-4.913-4.74h-13.36v20.815h-4.353V32.855h17.713c5.818 0 9.222 3.49 9.222 9.007 0 5.43-3.404 9.18-9.222 9.18H290.65v.042ZM334.436 58.066l-3.792-6.335h-11.895l2.069-3.577h7.714l-5.603-9.438-11.463 19.35h-5.043l14.481-24.134c.517-.862 1.163-1.422 2.155-1.422.991 0 1.594.56 2.111 1.422l14.524 24.134h-5.258ZM342.452 58.066V32.855h4.396V53.67h16.937v4.396h-21.333ZM393.262 58.066l-3.792-6.335h-11.938l2.069-3.577h7.714l-5.602-9.438-11.464 19.35h-4.956l14.48-24.134c.517-.862 1.164-1.422 2.155-1.422.991 0 1.595.56 2.112 1.422l14.523 24.134h-5.301ZM401.278 58.066V32.855h14.61c7.111 0 12.282 5.042 12.282 12.325 0 7.284-5.171 12.886-12.282 12.886h-14.61Zm14.567-4.396c4.525 0 7.886-3.49 7.886-8.231 0-4.74-3.318-8.145-7.886-8.145h-10.214v16.42h10.214v-.044ZM431.963 58.066V32.855h4.439v25.211h-4.439ZM445.107 39.62v18.446h-4.18V35.182c0-1.638.862-2.629 2.241-2.629.646 0 1.207.259 1.853.905l17.799 17.67V32.639H467v23.1c0 1.68-.905 2.629-2.198 2.629-.733 0-1.379-.302-2.025-.948l-17.67-17.8Z"/><path fill="#A181FA" d="M240.301 33.895c-5.073 0-10.006.7-12.945 1.225v2.799s1.854-.35 2.729-.49c2.869-.42 6.507-.805 10.181-.805 3.148 0 6.297.28 8.921.63V34.49c-2.554-.315-5.703-.595-8.886-.595Zm0 25.085c-3.219-1.294-5.738-3.253-7.522-5.772-1.715-2.45-2.659-5.318-2.659-8.152v-6.298c-.875.14-2.729.49-2.729.49v5.843c0 3.393 1.119 6.857 3.149 9.726 2.309 3.254 5.562 5.668 9.761 7.137 1.259-.455 2.414-.944 3.498-1.574-.07-.035-2.134-.84-3.498-1.4Zm10.216-24.28v10.356c0 2.834-.945 5.738-2.659 8.152-1.54 2.169-3.604 3.918-6.193 5.178 1.155.49 2.694 1.05 3.289 1.294a18.59 18.59 0 0 0 5.143-4.898c2.029-2.904 3.149-6.367 3.149-9.726V35.12c-.77-.14-1.715-.28-2.729-.42Z"/><path fill="url(#a)" d="M239.321 17.942a1.016 1.016 0 0 1 2.029 0 1.015 1.015 0 0 1-2.029 0Zm3.499-1.4a.78.78 0 0 0 .839-.7.78.78 0 0 0-.699-.84.748.748 0 0 0-.805.7c-.035.42.245.805.665.84Zm-5.843-.7a.78.78 0 0 0 .84.7.78.78 0 0 0 .699-.84.78.78 0 0 0-.839-.7.78.78 0 0 0-.7.84Zm-4.128 1.575a.727.727 0 0 0 .524-.945.726.726 0 0 0-.944-.525.757.757 0 0 0-.525.91c.105.385.525.665.945.56Zm-4.758 1.714a.769.769 0 0 0 .384-1.015c-.175-.384-.629-.56-1.014-.384a.768.768 0 0 0-.385 1.014c.175.385.63.56 1.015.385Zm-4.339 2.519c.35-.245.42-.735.175-1.05-.245-.35-.735-.42-1.049-.175-.35.245-.42.735-.175 1.05.21.315.699.42 1.049.175Zm-3.883 3.219a.74.74 0 0 0 0-1.085.741.741 0 0 0-1.085 0 .74.74 0 0 0 0 1.085c.315.315.805.315 1.085 0Zm-4.478 3.009c-.245.35-.175.84.174 1.05.35.244.84.174 1.05-.176.21-.35.175-.84-.175-1.05-.315-.28-.805-.174-1.049.176Zm-2.659 4.583c-.175.385 0 .84.384 1.014a.769.769 0 0 0 .63-1.4.768.768 0 0 0-1.014.386Zm-.875 4.443c-.385-.105-.805.14-.945.525-.105.42.14.84.525.944.42.105.84-.14.945-.524a.726.726 0 0 0-.525-.945Zm-1.854 5.773a.78.78 0 0 0 .699.84.78.78 0 0 0 .84-.7.78.78 0 0 0-.7-.84.78.78 0 0 0-.839.7Zm.839 5.982a.78.78 0 0 0 .7-.84.78.78 0 0 0-.84-.699c-.419.07-.734.42-.699.84a.78.78 0 0 0 .839.7Zm1.015 5.073a.727.727 0 0 0 .525-.944.727.727 0 0 0-.945-.525.726.726 0 0 0-.525.945c.14.384.56.63.945.524Zm1.259 3.429c-.384.175-.559.63-.384 1.015a.768.768 0 0 0 1.399-.63.77.77 0 0 0-1.015-.385Zm2.449 4.548c-.349.245-.419.735-.174 1.05.244.35.734.42 1.049.175.35-.245.42-.735.175-1.05-.21-.35-.7-.42-1.05-.175Zm4.304 5.108a.74.74 0 0 0 0-1.084.741.741 0 0 0-1.085 0 .74.74 0 0 0 0 1.084c.315.315.805.315 1.085 0Zm4.058 3.254c.245-.35.175-.84-.175-1.05-.35-.245-.839-.175-1.049.175-.245.35-.175.84.175 1.05.349.245.804.14 1.049-.175Zm4.164 1.434a.768.768 0 0 0-.63 1.4.768.768 0 0 0 .63-1.4Zm4.758 1.715c-.42-.105-.84.14-.945.525-.105.42.14.84.525.944.42.105.839-.14.944-.525.105-.42-.14-.84-.524-.944Zm4.933.874a.78.78 0 0 0-.84.7.78.78 0 0 0 .7.84.78.78 0 0 0 .839-.7c.035-.42-.244-.805-.699-.84Zm5.877.7a.78.78 0 0 0-.839-.7.78.78 0 0 0-.7.84.78.78 0 0 0 .84.7.78.78 0 0 0 .699-.84Zm4.129-1.574a.726.726 0 0 0-.525.944c.14.42.525.665.945.525a.727.727 0 0 0 .524-.944c-.105-.385-.524-.63-.944-.525Zm4.758-1.715c-.385.175-.56.63-.385 1.015a.77.77 0 0 0 1.015.385.769.769 0 0 0 .384-1.015c-.209-.385-.664-.56-1.014-.385Zm4.338-2.519c-.35.245-.42.735-.175 1.05.245.35.735.42 1.05.175.35-.245.42-.735.175-1.05-.21-.315-.7-.42-1.05-.175Zm3.884-3.218a.74.74 0 0 0 0 1.084.74.74 0 0 0 1.084 0 .74.74 0 0 0 0-1.084c-.315-.315-.804-.315-1.084 0Zm4.478-3.01c.245-.35.175-.839-.175-1.049-.35-.245-.84-.175-1.05.175-.245.35-.175.84.175 1.05.315.28.805.175 1.05-.175Zm2.659-4.582a.769.769 0 0 0-1.4-.63.769.769 0 0 0 1.4.63Zm.874-4.444c.42.105.84-.14.945-.524.105-.42-.14-.84-.525-.945-.42-.105-.839.14-.944.525-.14.42.105.84.524.944Zm1.855-5.772a.78.78 0 0 0-.7-.84.78.78 0 0 0-.84.7.78.78 0 0 0 .7.84.78.78 0 0 0 .84-.7Zm-.84-5.983a.78.78 0 0 0-.7.84.78.78 0 0 0 .84.7.78.78 0 0 0 .7-.84.78.78 0 0 0-.84-.7Zm-.63-3.604a.726.726 0 0 0 .525-.944.727.727 0 0 0-.945-.525.727.727 0 0 0-.524.945c.105.385.524.63.944.524Zm-1.644-4.898c.385-.175.56-.63.385-1.014a.769.769 0 1 0-.385 1.015Zm-2.449-4.548c.35-.245.42-.735.175-1.05-.245-.314-.735-.42-1.05-.174-.35.245-.42.734-.175 1.05.21.35.7.42 1.05.174Zm-4.303-5.108a.74.74 0 0 0 0 1.085.74.74 0 0 0 1.084 0 .74.74 0 0 0 0-1.085c-.315-.315-.804-.315-1.084 0Zm-4.059-3.253c-.245.35-.175.84.175 1.049.35.245.84.175 1.05-.175.245-.35.175-.84-.175-1.05-.35-.244-.805-.14-1.05.175Zm-4.163-1.435a.768.768 0 1 0 .629-1.4.768.768 0 0 0-.629 1.4Zm-4.758-1.714c.42.105.839-.14.944-.525.105-.42-.14-.84-.524-.945-.42-.105-.84.14-.945.525-.105.42.14.805.525.945Zm-2.904 1.924c.56.105 1.049-.28 1.154-.805.105-.56-.279-1.05-.804-1.154-.56-.105-1.05.28-1.155.804-.105.56.28 1.05.805 1.155Zm3.848-.07c-.175.525.07 1.084.595 1.294a1.026 1.026 0 0 0 1.295-.594 1.025 1.025 0 0 0-.595-1.295c-.525-.21-1.085.07-1.295.595Zm4.409 1.854a1.01 1.01 0 0 0 .349 1.365 1.01 1.01 0 0 0 1.365-.35c.28-.49.105-1.085-.35-1.365-.49-.314-1.084-.14-1.364.35Zm3.988 2.59c-.35.42-.315 1.049.14 1.399.455.35 1.05.314 1.399-.14.35-.42.315-1.05-.14-1.4-.384-.35-1.014-.28-1.399.14Zm3.499 3.253c-.42.35-.49.98-.14 1.4.35.42.979.49 1.399.14.42-.35.49-.98.14-1.4-.315-.455-.945-.49-1.399-.14Zm3.883 5.528c.49-.28.63-.875.35-1.365s-.875-.63-1.364-.35c-.49.28-.63.875-.35 1.365.28.455.909.63 1.364.35Zm.595 3.813c.175.525.77.77 1.294.595.525-.175.77-.77.595-1.295-.175-.524-.77-.77-1.294-.594a.984.984 0 0 0-.595 1.294Zm1.994 3.254a.988.988 0 0 0-.805 1.154c.105.56.63.91 1.155.805.56-.105.91-.63.805-1.154-.105-.525-.595-.875-1.155-.805Zm.595 4.758a1.016 1.016 0 1 0 .001 2.031 1.016 1.016 0 0 0-.001-2.03Zm-.595 6.717c.56.105 1.05-.28 1.155-.804.105-.56-.28-1.05-.805-1.155-.56-.105-1.05.28-1.155.805-.105.56.245 1.084.805 1.154Zm-.105 3.989a1.025 1.025 0 0 0-.595-1.295 1.025 1.025 0 0 0-1.294.595c-.175.525.07 1.085.595 1.295.524.21 1.084-.07 1.294-.595Zm-2.099 4.478c.28-.49.105-1.085-.35-1.364a1.008 1.008 0 0 0-1.364.35c-.28.49-.105 1.084.35 1.364a.986.986 0 0 0 1.364-.35Zm-2.974 2.624c-.42-.35-1.049-.315-1.399.14-.35.42-.315 1.05.14 1.4.419.35 1.049.314 1.399-.14.35-.385.28-1.015-.14-1.4Zm-4.653 3.394c-.42.35-.49.98-.14 1.4.35.419.98.489 1.399.14.42-.35.49-.98.14-1.4-.349-.455-.979-.49-1.399-.14Zm-2.414 3.008c-.28-.49-.875-.63-1.365-.35-.489.28-.629.875-.349 1.365s.874.63 1.364.35c.49-.28.63-.91.35-1.365Zm-4.233 2.17c-.175-.525-.77-.77-1.295-.595-.525.175-.77.77-.595 1.294.175.525.77.77 1.295.595.525-.175.77-.77.595-1.294Zm-4.584 1.4a.987.987 0 0 0-1.154-.806c-.525.105-.91.63-.805 1.155.105.56.63.91 1.155.805.56-.105.909-.595.804-1.155Zm-5.737-.42a1.016 1.016 0 0 0 0 2.029 1.015 1.015 0 0 0 0-2.03Zm-4.549-.386c-.559-.105-1.049.28-1.154.805-.105.56.28 1.05.805 1.155.524.105 1.049-.28 1.154-.805.105-.56-.28-1.05-.805-1.155Zm-3.848.07a1.025 1.025 0 0 0-.595-1.294 1.025 1.025 0 0 0-1.294.595c-.175.525.07 1.084.595 1.294.524.21 1.084-.07 1.294-.595Zm-4.408-1.854c.28-.49.105-1.084-.35-1.364a1.01 1.01 0 0 0-1.365.35 1.01 1.01 0 0 0 .35 1.364c.49.315 1.085.14 1.365-.35Zm-3.989-2.589c.35-.42.315-1.05-.14-1.4-.419-.35-1.049-.314-1.399.14-.35.42-.315 1.05.14 1.4.385.35 1.014.28 1.399-.14Zm-3.498-3.254c.42-.35.49-.98.14-1.399a.999.999 0 0 0-1.4-.14c-.42.35-.49.98-.14 1.4.315.454.945.49 1.4.14Zm-3.884-5.527c-.49.28-.63.874-.35 1.364.28.49.875.63 1.365.35s.63-.875.35-1.364c-.28-.455-.91-.63-1.365-.35Zm-.595-3.814c-.174-.525-.769-.77-1.294-.595-.525.175-.77.77-.595 1.295.175.525.77.77 1.295.595a.983.983 0 0 0 .594-1.295Zm-1.994-3.289c.56-.104.91-.63.805-1.154-.105-.525-.63-.91-1.155-.805a.988.988 0 0 0-.804 1.155c.105.524.594.91 1.154.804Zm-1.574-5.737a1.015 1.015 0 1 0 1.014-1.015c-.594.035-1.014.49-1.014 1.015Zm1.574-5.738c-.56-.105-1.049.28-1.154.805-.105.524.28 1.05.804 1.154.56.105 1.05-.28 1.155-.804a.988.988 0 0 0-.805-1.155Zm.105-3.954c-.175.525.07 1.085.595 1.295.525.21 1.085-.07 1.294-.595a1.025 1.025 0 0 0-.594-1.294 1.026 1.026 0 0 0-1.295.594Zm2.099-4.478a1.01 1.01 0 0 0 .35 1.365 1.01 1.01 0 0 0 1.365-.35c.28-.49.105-1.085-.35-1.365a.987.987 0 0 0-1.365.35Zm2.974-2.624c.42.35 1.05.315 1.4-.14.35-.42.315-1.05-.14-1.4-.42-.349-1.05-.314-1.4.14-.35.386-.28 1.015.14 1.4Zm4.653-3.393c.42-.35.49-.98.14-1.4a.997.997 0 0 0-1.399-.14c-.42.35-.49.98-.14 1.4.35.454.98.49 1.399.14Zm2.414-3.01c.28.49.875.63 1.365.35s.63-.874.35-1.364c-.28-.49-.875-.63-1.365-.35a.987.987 0 0 0-.35 1.365Zm4.234-2.168c.175.524.769.77 1.294.595.525-.175.77-.77.595-1.295-.175-.525-.77-.77-1.294-.595-.525.21-.77.77-.595 1.295Zm4.548-1.4c.105.56.63.91 1.155.805a.988.988 0 0 0 .804-1.155.988.988 0 0 0-1.154-.804c-.525.105-.875.595-.805 1.154Zm3.464.735c-.63.07-1.12.63-1.05 1.26.07.63.63 1.119 1.26 1.05.629-.07 1.119-.63 1.049-1.26-.035-.63-.595-1.085-1.259-1.05Zm4.373 2.344c.63.07 1.224-.42 1.259-1.05.07-.63-.419-1.224-1.049-1.259-.63-.07-1.225.42-1.26 1.05-.07.63.385 1.224 1.05 1.259Zm3.254-.7c-.175.63.21 1.26.839 1.435.63.175 1.26-.21 1.435-.84.175-.63-.21-1.26-.84-1.434-.63-.175-1.259.21-1.434.84Zm5.702.735a1.175 1.175 0 0 0-1.574.56 1.175 1.175 0 0 0 .56 1.574c.595.28 1.294.035 1.574-.56.28-.594.035-1.33-.56-1.574Zm2.589 4.198c.525.385 1.26.245 1.645-.28.385-.524.245-1.259-.28-1.644s-1.26-.245-1.645.28a1.215 1.215 0 0 0 .28 1.644Zm3.184.98a1.161 1.161 0 0 0 0 1.644 1.16 1.16 0 0 0 1.644 0 1.161 1.161 0 0 0 0-1.644 1.161 1.161 0 0 0-1.644 0Zm4.303 5.143c.525-.385.665-1.12.28-1.644-.385-.525-1.119-.665-1.644-.28-.525.385-.665 1.12-.28 1.644.385.525 1.12.63 1.644.28Zm.455 3.289c.28.594.98.84 1.575.56.594-.28.839-.98.559-1.575a1.175 1.175 0 0 0-1.574-.56c-.595.28-.84.98-.56 1.575Zm2.239 2.449c-.629.175-.979.804-.839 1.434.175.63.804.98 1.434.84.63-.175.98-.805.84-1.435s-.805-.98-1.435-.84Zm.945 4.268c-.63.07-1.12.63-1.05 1.26.07.63.63 1.12 1.26 1.05.63-.07 1.119-.63 1.049-1.26a1.128 1.128 0 0 0-1.259-1.05Zm1.294 5.633c.07-.63-.419-1.225-1.049-1.26-.63-.07-1.225.42-1.26 1.05-.035.63.42 1.224 1.05 1.26.63.07 1.189-.42 1.259-1.05Zm-2.239 5.283c.63.175 1.26-.21 1.435-.84.175-.63-.21-1.26-.84-1.434-.63-.175-1.259.21-1.434.84-.175.629.21 1.294.839 1.434Zm-.14 3.463a1.176 1.176 0 0 0-.559-1.574 1.176 1.176 0 0 0-1.575.56 1.175 1.175 0 0 0 .56 1.574c.63.28 1.329.035 1.574-.56Zm-3.883 4.234c.525.384 1.259.245 1.644-.28s.245-1.26-.28-1.645c-.524-.384-1.259-.245-1.644.28-.385.56-.28 1.295.28 1.645Zm-2.974 1.54a1.161 1.161 0 0 0 0 1.643c.455.455 1.19.455 1.644 0a1.161 1.161 0 0 0 0-1.644c-.419-.455-1.189-.455-1.644 0Zm-3.184 2.658c-.524.385-.664 1.12-.28 1.644.385.525 1.12.665 1.645.28.525-.385.665-1.12.28-1.644-.35-.525-1.085-.63-1.645-.28Zm-3.568 2.1c-.595.28-.84.979-.56 1.574.28.594.98.84 1.574.56.595-.28.84-.98.56-1.575-.28-.595-.98-.84-1.574-.56Zm-2.484 2.238c-.175-.63-.805-.98-1.435-.84-.629.176-.979.805-.839 1.435.175.63.804.98 1.434.84.665-.175 1.015-.805.84-1.435Zm-5.283 2.24c.63-.07 1.119-.63 1.049-1.26-.07-.63-.629-1.12-1.259-1.05-.63.07-1.12.63-1.05 1.26.035.63.595 1.084 1.26 1.05Zm-4.373-2.345c-.63-.07-1.225.42-1.26 1.05-.07.63.42 1.224 1.05 1.26.629.07 1.224-.42 1.259-1.05.07-.63-.385-1.225-1.049-1.26Zm-3.254.7c.175-.63-.21-1.26-.84-1.434-.63-.175-1.259.21-1.434.84-.175.629.21 1.259.839 1.434.63.175 1.26-.21 1.435-.84Zm-5.703-.735c.595.28 1.295.035 1.574-.56a1.176 1.176 0 0 0-.559-1.574 1.176 1.176 0 0 0-1.575.56c-.28.63-.035 1.33.56 1.574Zm-2.589-4.198c-.525-.385-1.259-.245-1.644.28s-.245 1.26.28 1.644c.524.385 1.259.245 1.644-.28.35-.524.245-1.26-.28-1.644Zm-3.184-.98a1.161 1.161 0 0 0 0-1.644 1.161 1.161 0 0 0-1.644 0 1.161 1.161 0 0 0 0 1.644c.42.455 1.19.455 1.644 0Zm-4.303-5.143c-.525.385-.665 1.12-.28 1.645.385.525 1.12.664 1.644.28.525-.385.665-1.12.28-1.645-.384-.525-1.119-.63-1.644-.28Zm-.455-3.288a1.175 1.175 0 0 0-1.574-.56c-.595.28-.84.98-.56 1.574.28.595.98.84 1.574.56.595-.28.84-.98.56-1.574Zm-2.239-2.484c.63-.175.98-.805.84-1.435s-.805-.98-1.435-.84c-.629.175-.979.805-.839 1.435.175.665.804 1.015 1.434.84Zm-.945-4.234c.63-.07 1.12-.63 1.05-1.26-.07-.629-.63-1.119-1.259-1.049-.63.07-1.12.63-1.05 1.26.035.63.595 1.12 1.259 1.05Zm-1.294-5.632c-.07.63.42 1.224 1.05 1.26.629.07 1.224-.42 1.259-1.05.035-.63-.42-1.225-1.05-1.26-.629-.07-1.189.42-1.259 1.05Zm2.239-5.318c-.63-.175-1.259.21-1.434.84-.175.63.21 1.259.839 1.434.63.175 1.26-.21 1.435-.84.175-.595-.21-1.26-.84-1.434Zm.14-3.429a1.175 1.175 0 0 0 .56 1.574c.595.28 1.294.035 1.574-.56a1.175 1.175 0 0 0-.56-1.574c-.629-.28-1.329-.035-1.574.56Zm3.883-4.233c-.524-.385-1.259-.245-1.644.28-.385.524-.245 1.26.28 1.644.525.385 1.26.245 1.644-.28.385-.56.245-1.294-.28-1.644Zm2.974-1.54a1.161 1.161 0 0 0 0-1.644 1.161 1.161 0 0 0-1.644 0 1.161 1.161 0 0 0 0 1.644c.42.455 1.19.455 1.644 0Zm3.184-2.659c.525-.384.665-1.12.28-1.644-.385-.525-1.12-.665-1.644-.28-.525.385-.665 1.12-.28 1.645.35.49 1.084.63 1.644.28Zm3.569-2.099c.594-.28.839-.98.559-1.574a1.175 1.175 0 0 0-1.574-.56c-.595.28-.84.98-.56 1.574.28.595.98.84 1.575.56Zm2.449-2.239c.175.63.804.98 1.434.84.63-.175.98-.805.84-1.435-.175-.63-.805-.98-1.435-.84-.629.176-.979.805-.839 1.435Zm3.463.385c-.734.14-1.259.84-1.119 1.574.14.735.839 1.26 1.574 1.12.735-.14 1.26-.84 1.12-1.574-.105-.77-.805-1.26-1.575-1.12Zm-3.988 1.085c-.7.244-1.085 1.05-.805 1.749.245.7 1.05 1.084 1.75.805.699-.245 1.084-1.05.804-1.75-.245-.7-1.049-1.084-1.749-.804Zm-2.379 4.128a1.373 1.373 0 0 0 .49-1.89 1.374 1.374 0 0 0-1.89-.49 1.373 1.373 0 0 0-.489 1.89c.384.63 1.224.84 1.889.49Zm-4.933 1.924c.49.595 1.364.665 1.924.175.595-.49.665-1.364.175-1.924-.49-.595-1.365-.665-1.924-.175-.595.49-.665 1.33-.175 1.924Zm-5.143 4.408c-.385.665-.14 1.505.49 1.89.664.385 1.504.14 1.889-.49.385-.665.14-1.505-.49-1.89-.7-.42-1.504-.174-1.889.49Zm-1.749 3.744c-.245.7.104 1.504.804 1.75.7.244 1.505-.106 1.749-.805.245-.7-.104-1.505-.804-1.75a1.333 1.333 0 0 0-1.749.805Zm-1.085 3.988c-.14.735.35 1.47 1.119 1.575.735.14 1.47-.35 1.575-1.12.14-.735-.35-1.47-1.12-1.574a1.382 1.382 0 0 0-1.574 1.12Zm1.015 2.764c-.77 0-1.365.63-1.365 1.365 0 .734.63 1.364 1.365 1.364.769 0 1.364-.63 1.364-1.364a1.39 1.39 0 0 0-1.364-1.365Zm.559 6.613c.735-.14 1.26-.84 1.12-1.575-.14-.734-.84-1.26-1.575-1.12-.734.14-1.259.84-1.119 1.575.14.77.84 1.26 1.574 1.12Zm1.26 3.708c.7-.245 1.084-1.05.804-1.75-.244-.699-1.049-1.084-1.749-.804-.7.245-1.084 1.05-.804 1.75a1.333 1.333 0 0 0 1.749.804Zm1.854 3.464a1.372 1.372 0 0 0 .49-1.89 1.373 1.373 0 0 0-1.889-.49 1.372 1.372 0 0 0-.49 1.89c.42.63 1.224.875 1.889.49Zm2.449 3.044c.595-.49.665-1.365.175-1.925a1.349 1.349 0 0 0-1.924-.175 1.349 1.349 0 0 0-.175 1.925c.49.594 1.329.664 1.924.175Zm2.764.664c-.595-.49-1.434-.42-1.924.175s-.42 1.435.175 1.925c.594.49 1.434.42 1.924-.175.49-.56.385-1.435-.175-1.925Zm3.009 2.1c-.665-.385-1.505-.14-1.889.49-.385.63-.14 1.504.489 1.889.665.384 1.505.14 1.89-.49.384-.63.14-1.505-.49-1.89Zm2.379 4.128c.7.245 1.504-.105 1.749-.805.245-.7-.105-1.504-.804-1.75-.7-.244-1.505.106-1.75.806-.28.7.105 1.504.805 1.749Zm3.988 1.084c.735.14 1.47-.35 1.575-1.12.14-.734-.35-1.468-1.12-1.573a1.332 1.332 0 0 0-1.574 1.12 1.402 1.402 0 0 0 1.119 1.573Zm4.129.35c.769 0 1.364-.63 1.364-1.364 0-.77-.63-1.365-1.364-1.365-.77 0-1.365.63-1.365 1.365 0 .77.63 1.364 1.365 1.364Zm4.163-.35c.735-.14 1.26-.84 1.12-1.574-.14-.735-.84-1.26-1.575-1.12-.734.14-1.259.84-1.119 1.575.105.77.804 1.26 1.574 1.12Zm3.988-1.084c.7-.245 1.085-1.05.805-1.75-.245-.7-1.049-1.084-1.749-.804-.7.245-1.085 1.05-.805 1.75.245.699 1.05 1.084 1.749.804Zm2.38-4.128a1.372 1.372 0 0 0-.49 1.889 1.372 1.372 0 0 0 1.889.49 1.372 1.372 0 0 0 .49-1.89c-.385-.63-1.225-.84-1.889-.49Zm4.933-1.925a1.35 1.35 0 0 0-1.925-.175 1.35 1.35 0 0 0-.175 1.925 1.35 1.35 0 0 0 1.925.175c.594-.49.664-1.33.175-1.925Zm.839-.84c.595.49 1.435.42 1.924-.174.49-.595.42-1.435-.174-1.925-.595-.49-1.435-.42-1.925.175-.489.595-.385 1.435.175 1.925Zm4.304-3.568c.384-.665.14-1.504-.49-1.89-.665-.384-1.505-.14-1.89.49-.384.665-.139 1.505.49 1.89.665.42 1.505.175 1.89-.49Zm1.749-3.743c.245-.7-.105-1.505-.805-1.75-.7-.245-1.504.105-1.749.805-.245.7.105 1.504.805 1.75.699.28 1.504-.106 1.749-.806Zm1.084-3.989a1.331 1.331 0 0 0-1.119-1.574c-.77-.105-1.47.35-1.574 1.12-.14.734.349 1.469 1.119 1.574a1.4 1.4 0 0 0 1.574-1.12Zm-1.014-5.528c-.77 0-1.365.63-1.365 1.365 0 .734.63 1.364 1.365 1.364a1.366 1.366 0 0 0 0-2.729Zm-.56-3.848c-.735.14-1.259.84-1.119 1.574.139.735.839 1.26 1.574 1.12.735-.14 1.259-.84 1.119-1.575-.139-.77-.839-1.26-1.574-1.12Zm-1.259-3.709c-.7.245-1.085 1.05-.805 1.75.245.7 1.049 1.084 1.749.804.7-.245 1.085-1.05.805-1.75-.245-.699-1.05-1.084-1.749-.804Zm-1.855-3.463a1.374 1.374 0 0 0-.49 1.889 1.373 1.373 0 0 0 1.89.49 1.374 1.374 0 0 0 .49-1.89c-.42-.63-1.26-.874-1.89-.49Zm-1.504-3.43c-.77 0-1.4.63-1.4 1.4 0 .77.63 1.4 1.4 1.4.77 0 1.399-.63 1.399-1.4 0-.77-.629-1.4-1.399-1.4Zm-3.709-.279c.595.49 1.435.42 1.925-.175.489-.595.419-1.434-.175-1.924-.595-.49-1.435-.42-1.925.175-.489.56-.384 1.434.175 1.924Zm-3.008-2.1c.664.386 1.504.14 1.889-.489.385-.665.14-1.504-.49-1.89-.665-.384-1.504-.14-1.889.49a1.372 1.372 0 0 0 .49 1.89Zm-2.38-4.127c-.699-.245-1.504.104-1.749.804-.245.7.105 1.505.805 1.75.7.244 1.504-.105 1.749-.805.245-.7-.105-1.505-.805-1.75Zm-3.988-1.085a1.332 1.332 0 0 0-1.574 1.12c-.14.734.35 1.469 1.119 1.574.735.14 1.47-.35 1.575-1.12a1.402 1.402 0 0 0-1.12-1.574Zm-5.983 2.554c-.769.07-1.364.77-1.294 1.54.07.769.77 1.364 1.539 1.294.77-.07 1.365-.77 1.295-1.54a1.395 1.395 0 0 0-1.54-1.294Zm-4.583 2.379c.21.77.98 1.19 1.75 1.015.769-.21 1.189-.98 1.014-1.75-.21-.77-.979-1.19-1.749-1.014a1.42 1.42 0 0 0-1.015 1.749Zm-3.114 1.364c.315.7 1.19 1.015 1.89.7.699-.315 1.014-1.19.699-1.89-.314-.699-1.189-1.014-1.889-.699-.735.35-1.049 1.19-.7 1.89Zm-7.976 12.42a1.42 1.42 0 0 0-1.015-1.749 1.42 1.42 0 0 0-1.749 1.015 1.42 1.42 0 0 0 1.014 1.75 1.42 1.42 0 0 0 1.75-1.016Zm-1.82 1.575c-.769-.07-1.469.525-1.539 1.294-.07.77.525 1.47 1.294 1.54.77.07 1.47-.525 1.54-1.295.035-.77-.525-1.47-1.295-1.54Zm0 6.263c.77-.07 1.365-.77 1.295-1.54-.07-.77-.77-1.364-1.54-1.294-.769.07-1.364.77-1.294 1.539.07.77.735 1.33 1.539 1.294Zm.105.56c-.769.21-1.189.979-1.014 1.748.21.77.979 1.19 1.749 1.015.77-.21 1.19-.98 1.015-1.75-.245-.769-1.015-1.224-1.75-1.014Zm.245 5.177c.315.7 1.19 1.015 1.889.7.7-.315 1.015-1.19.7-1.89-.315-.7-1.189-1.014-1.889-.7a1.381 1.381 0 0 0-.7 1.89Zm4.129 1.54c-.455-.63-1.33-.805-1.96-.35-.629.454-.804 1.33-.35 1.959.455.63 1.33.805 1.96.35a1.38 1.38 0 0 0 .35-1.96Zm2.029 2.414a1.394 1.394 0 0 0-1.994 0c-.56.56-.56 1.434 0 1.994.559.56 1.434.56 1.994 0s.56-1.435 0-1.994Zm27.639 1.994c.56-.56.56-1.435 0-1.994a1.394 1.394 0 0 0-1.994 0c-.56.56-.56 1.434 0 1.994.559.56 1.434.56 1.994 0Zm2.344-2.8c.455-.629.28-1.538-.35-1.958a1.402 1.402 0 0 0-1.959.35c-.455.63-.28 1.539.35 1.959.629.455 1.504.28 1.959-.35Zm1.154-5.037a1.43 1.43 0 0 0-1.889.7 1.43 1.43 0 0 0 .7 1.889 1.43 1.43 0 0 0 1.889-.7c.315-.734 0-1.574-.7-1.89Zm1.925-1.54a1.42 1.42 0 0 0-1.015-1.749 1.42 1.42 0 0 0-1.749 1.015 1.42 1.42 0 0 0 1.014 1.75c.77.174 1.54-.28 1.75-1.016Zm.629-3.603c.07-.77-.524-1.47-1.294-1.54-.77-.07-1.469.525-1.539 1.295-.07.77.524 1.47 1.294 1.54.805.034 1.469-.525 1.539-1.295Zm0-3.674c-.07-.77-.769-1.364-1.539-1.294-.77.07-1.364.77-1.294 1.54.07.769.769 1.364 1.539 1.294a1.394 1.394 0 0 0 1.294-1.54Zm-1.644-1.854c.77-.21 1.19-.98 1.015-1.75-.21-.769-.98-1.189-1.75-1.014-.769.21-1.189.98-1.014 1.75.245.77 1.014 1.224 1.749 1.014Zm-12.245-14.624a1.43 1.43 0 0 0 .7 1.89 1.43 1.43 0 0 0 1.889-.7 1.43 1.43 0 0 0-.7-1.89c-.735-.315-1.574 0-1.889.7Zm-1.539-1.924a1.42 1.42 0 0 0-1.75 1.014 1.42 1.42 0 0 0 1.015 1.75 1.42 1.42 0 0 0 1.749-1.015c.175-.77-.28-1.54-1.014-1.75Zm-5.143.664c-.07.77.524 1.47 1.294 1.54.77.07 1.469-.525 1.539-1.295.07-.77-.524-1.47-1.294-1.54a1.394 1.394 0 0 0-1.539 1.295Zm-.315-4.198c-.77 0-1.365.63-1.365 1.364 0 .735.63 1.365 1.365 1.365.769 0 1.364-.63 1.364-1.364 0-.735-.595-1.365-1.364-1.365Zm11.23 6.333c-.769 0-1.399.63-1.399 1.399 0 .77.63 1.4 1.399 1.4.77 0 1.4-.63 1.4-1.4 0-.77-.63-1.4-1.4-1.4Zm2.729 2.274c-.595 0-1.049.49-1.049 1.05 0 .559.489 1.049 1.049 1.049.595 0 1.05-.49 1.05-1.05s-.49-1.05-1.05-1.05Zm-27.884 0c-.595 0-1.049.49-1.049 1.05 0 .559.489 1.049 1.049 1.049.56 0 1.05-.49 1.05-1.05s-.455-1.05-1.05-1.05Zm-2.344 2.624c-.595 0-1.049.49-1.049 1.05 0 .559.489 1.049 1.049 1.049.56 0 1.05-.49 1.05-1.05s-.455-1.05-1.05-1.05Zm32.572 0c-.595 0-1.049.49-1.049 1.05 0 .559.489 1.049 1.049 1.049.595 0 1.05-.49 1.05-1.05s-.455-1.05-1.05-1.05Zm1.505 2.903c-.77 0-1.4.63-1.4 1.4 0 .77.63 1.4 1.4 1.4.769 0 1.399-.63 1.399-1.4 0-.77-.63-1.4-1.399-1.4Zm-6.578 24.246c-.769 0-1.399.63-1.399 1.4 0 .77.63 1.399 1.399 1.399.77 0 1.4-.63 1.4-1.4 0-.77-.63-1.4-1.4-1.4Zm-22.426 0c-.77 0-1.399.63-1.399 1.4 0 .77.629 1.399 1.399 1.399s1.4-.63 1.4-1.4c0-.77-.63-1.4-1.4-1.4Zm2.729 2.204c-.63 0-1.155.525-1.155 1.155s.525 1.154 1.155 1.154 1.155-.525 1.155-1.154c0-.63-.49-1.155-1.155-1.155Zm3.184 2.03a.851.851 0 0 0-.84.839c0 .455.385.84.84.84a.85.85 0 0 0 .839-.84.828.828 0 0 0-.839-.84Zm10.566 0a.851.851 0 0 0-.84.839c0 .455.385.84.84.84a.851.851 0 0 0 .839-.84.851.851 0 0 0-.839-.84Zm3.078-2.03c-.629 0-1.154.525-1.154 1.155s.525 1.154 1.154 1.154c.63 0 1.155-.525 1.155-1.154 0-.63-.49-1.155-1.155-1.155Zm-25.505-32.642c-.769 0-1.399.63-1.399 1.4 0 .77.63 1.399 1.399 1.399.77 0 1.4-.63 1.4-1.4-.035-.77-.63-1.4-1.4-1.4Zm5.948-1.61c-.77 0-1.399.63-1.399 1.4 0 .77.629 1.4 1.399 1.4s1.4-.63 1.4-1.4c0-.77-.63-1.4-1.4-1.4Zm-6.577 7.802c-.77 0-1.4.63-1.4 1.4 0 .77.63 1.4 1.4 1.4.769 0 1.399-.63 1.399-1.4 0-.77-.63-1.4-1.399-1.4Z"/><defs><radialGradient id="a" cx="0" cy="0" r="1" gradientTransform="translate(240.128 45.48) scale(31.4224)" gradientUnits="userSpaceOnUse"><stop stop-color="#E2D8ED"/><stop offset=".207" stop-color="#DFD5ED"/><stop offset=".376" stop-color="#D7CBEB"/><stop offset=".531" stop-color="#C9BAE9"/><stop offset=".679" stop-color="#B6A2E6"/><stop offset=".82" stop-color="#9D83E2"/><stop offset=".956" stop-color="#7E5DDD"/><stop offset="1" stop-color="#734FDB"/></radialGradient></defs></svg>