<svg width="40" height="50" viewBox="0 0 40 50" fill="none" xmlns="http://www.w3.org/2000/svg">
<path d="M36.4149 49.9999H3.58404C1.60487 49.9999 0 48.1998 0 45.9792V24.8762C0 22.6555 1.60487 20.8555 3.58404 20.8555H36.4149C38.394 20.8555 39.9989 22.6555 39.9989 24.8762V45.9803C39.9989 48.2009 38.394 50.001 36.4149 50.001V49.9999Z" fill="#888B92"/>
<path d="M33.3807 21.2828H28.1722V13.8413C28.1722 9.11489 24.5545 5.27032 20.1076 5.27032H19.8922C15.4453 5.27032 11.8275 9.11489 11.8275 13.8413V21.2828H6.62012V13.8413C6.62012 6.20944 12.5739 0 19.8922 0H20.1076C27.4258 0 33.3796 6.20944 33.3796 13.8413V21.2828H33.3807Z" fill="#888B92"/>
</svg>
