<svg width="47" height="45" viewBox="0 0 47 45" fill="none" xmlns="http://www.w3.org/2000/svg">
<path fill-rule="evenodd" clip-rule="evenodd" d="M24.5258 3.36862V0.948938C24.5258 0.687235 24.4196 0.449203 24.2492 0.277926C24.0788 0.106383 23.8418 0 23.5819 0C23.3219 0 23.0874 0.106383 22.9167 0.277926L22.9154 0.279256C22.745 0.451331 22.6388 0.688565 22.6388 0.949204V3.36251C10.5668 3.78777 0.807302 12.9157 0 24.425C1.15204 22.1825 3.47621 20.6492 6.15727 20.6492C8.6217 20.6492 10.7855 21.945 12.0136 23.8968C13.2418 21.945 15.4048 20.6492 17.8692 20.6492C19.7208 20.6492 21.3964 21.3873 22.6391 22.5788V34.8102C22.6391 35.0551 22.6359 35.2756 22.6306 35.4892L22.6055 36.2923L22.605 36.3253C22.5572 37.8408 22.4969 39.749 22.6613 40.5676C22.7926 41.2208 23.0187 41.8131 23.3227 42.3365C23.6379 42.878 24.0368 43.3466 24.5036 43.7328C24.9743 44.1227 25.5135 44.4285 26.1026 44.6418C26.6846 44.8519 27.3173 44.9724 27.9814 44.9945C31.0011 45.095 31.8692 43.8123 33.2505 41.7716V41.7703C33.4035 41.544 33.5694 41.2998 33.7794 40.9993V40.9974C33.9281 40.7833 33.9778 40.5288 33.9368 40.2921C33.8959 40.0525 33.764 39.8288 33.5514 39.6785H33.5503C33.3377 39.5291 33.0841 39.4793 32.8498 39.52C32.6115 39.5612 32.3893 39.6947 32.2401 39.9088C32.0192 40.2248 31.825 40.5205 31.6433 40.7985V40.8006C30.7092 42.228 30.0913 43.1711 28.0403 43.1033C27.5819 43.0878 27.149 43.0073 26.7519 42.8655C26.3594 42.7256 26.0041 42.5251 25.6974 42.2711C25.3989 42.0243 25.1421 41.7219 24.94 41.3703C24.7408 41.0256 24.5915 40.6317 24.5044 40.1963V40.195C24.3807 39.5884 24.4391 37.7886 24.4846 36.3657V36.3626L24.4851 36.3517L24.4891 36.2253C24.5089 35.6083 24.5263 35.0673 24.5263 34.8102V22.579C25.769 21.3873 27.4441 20.6492 29.2959 20.6492C31.7606 20.6492 33.9241 21.945 35.1523 23.8968C36.3799 21.945 38.5442 20.6492 41.0086 20.6492C43.4731 20.6492 45.8001 22.0455 47 24.1218C46.0487 12.8006 36.4271 3.85639 24.5263 3.36862H24.5258Z" fill="#888B92"/>
</svg>
