<svg width="49" height="45" viewBox="0 0 49 45" fill="none" xmlns="http://www.w3.org/2000/svg">
<path d="M31.871 28.4798H26.2324V1.71974C26.2324 0.768735 25.4582 0 24.5004 0C23.5426 0 22.7691 0.769498 22.7691 1.71974V28.4798H17.1275C16.6712 28.4798 16.225 28.6644 15.9032 28.9862C15.5798 29.3065 15.3962 29.7488 15.3962 30.2018V37.8C15.3962 38.2507 14.5798 38.693 14.9032 39.0164C16.225 39.3359 16.6712 39.5197 17.1275 39.5197H22.7691V43.2818C22.7691 44.229 23.5426 45 24.5004 45C25.4582 45 26.2324 44.229 26.2324 43.2818V39.5197H31.871C32.3326 39.5197 32.7696 39.339 33.0953 39.0118C33.4217 38.6907 33.6038 38.2576 33.6038 37.7992V30.2011C33.6038 29.7481 33.4179 29.3057 33.0953 28.9854C32.7719 28.6636 32.3265 28.4798 31.871 28.4798Z" fill="#888B92"/>
<path d="M17.6991 25.1166C18.0247 24.7932 18.2075 24.3608 18.2075 23.9032V16.3074C18.2075 15.8544 18.0232 15.4113 17.6991 15.091C17.3765 14.7684 16.9303 14.5854 16.4748 14.5854H10.835V1.71974C10.835 0.768735 10.0608 0 9.10377 0C8.14678 0 7.37027 0.769498 7.37027 1.71974V14.5854H1.7312C1.27497 14.5854 0.827964 14.7684 0.506917 15.091C0.183565 15.4113 0 15.8544 0 16.3074V23.9032C0 24.354 0.183565 24.7978 0.506917 25.1196C0.827196 25.44 1.27497 25.6245 1.7312 25.6245H7.37104V43.2818C7.37104 44.229 8.14678 45 9.10454 45C10.0623 45 10.8357 44.229 10.8357 43.2818V25.6245H16.4756C16.938 25.6245 17.3734 25.443 17.6991 25.1166Z" fill="#888B92"/>
<path d="M41.6263 43.2811V16.6221H47.268C47.7296 16.6221 48.1636 16.4436 48.49 16.1172C48.8195 15.7924 49 15.363 49 14.9016V7.30515C49 6.85139 48.8157 6.40907 48.49 6.08953C48.1705 5.76999 47.725 5.5862 47.268 5.5862H41.6263V1.71971C41.6263 0.768722 40.8536 0 39.8951 0C38.9365 0 38.1638 0.769485 38.1638 1.71971V5.5862H32.5253C32.069 5.5862 31.622 5.77076 31.2979 6.08953C30.976 6.40907 30.7925 6.85063 30.7925 7.30515V14.9024C30.7925 15.3554 30.976 15.7992 31.2994 16.118C31.6228 16.4391 32.0682 16.6229 32.5245 16.6229H38.163V43.2818C38.163 44.229 38.938 45 39.8943 45C40.8506 45 41.6256 44.229 41.6256 43.2818L41.6263 43.2811Z" fill="#888B92"/>
</svg>
