<svg width="47" height="47" viewBox="0 0 47 47" fill="none" xmlns="http://www.w3.org/2000/svg">
<path d="M42.2829 4.71594C39.2422 1.67472 35.1989 0 30.8981 0C26.5973 0 22.554 1.67472 19.5129 4.71594C16.4718 7.75715 14.7971 11.8006 14.7971 16.1014C14.7971 19.9763 16.157 23.6414 18.6499 26.5535L15.1775 30.026C14.3303 29.8 13.3895 30.0185 12.7248 30.6831L0.743756 42.6645C-0.247919 43.6562 -0.247919 45.2644 0.743756 46.2561C1.23981 46.7522 1.88954 47 2.53972 47C3.18989 47 3.83962 46.7522 4.33567 46.2561L16.3172 34.2743C16.9818 33.6096 17.2003 32.6687 16.9744 31.8215L20.4468 28.349C23.3587 30.8421 27.0242 32.2024 30.899 32.2024C35.1997 32.2024 39.243 30.5277 42.2842 27.4865C45.3253 24.4453 47 20.4019 47 16.101C47 11.8001 45.3253 7.75671 42.2842 4.7155L42.2829 4.71594ZM40.4873 25.6905C37.9261 28.2518 34.5202 29.6625 30.8981 29.6625C27.276 29.6625 23.8701 28.2518 21.3088 25.6905C16.0212 20.4027 16.0212 11.7993 21.3088 6.51151C23.8701 3.95016 27.2755 2.53945 30.8981 2.53945C34.5207 2.53945 37.9261 3.95016 40.4873 6.51151C45.775 11.7993 45.775 20.4027 40.4873 25.6905Z" fill="#888B92"/>
</svg>
