<svg width="14" height="15" viewBox="0 0 14 15" fill="none" xmlns="http://www.w3.org/2000/svg">
<path d="M0.000933513 2.6937C0.087496 2.43 0.135621 2.14697 0.267496 1.90436C0.706871 1.09511 1.42375 0.632756 2.3975 0.619865C4.21969 0.595839 5.04281 0.610782 6.86624 0.611954C7.14406 0.611954 7.30874 0.772223 7.31124 1.03563C7.31437 1.35294 7.31124 0.670553 7.31124 0.987869C7.31124 1.31017 7.15062 1.45667 6.80031 1.45667H2.61343C1.50093 1.49681 0.972808 2.0144 0.972808 3.05731C0.972808 6.05526 0.972808 9.0536 0.972808 12.0523C0.972808 13 1.67015 13.653 2.61687 13.653C5.81437 13.653 8.01229 13.653 11.2106 13.653C12.2116 13.653 12.8694 13.1127 12.8475 12.0491V7.4637C12.8475 7.09598 12.9934 6.95681 13.3813 6.95564C13.7041 6.95564 13.0272 6.95183 13.35 6.95564C13.6506 6.96033 13.8156 7.108 13.8159 7.3758C13.8159 9.0116 13.8256 10.6474 13.8094 12.2829C13.7987 13.3547 12.8775 14.3081 11.7447 14.4666C11.6944 14.4737 11.645 14.4886 11.5953 14.5H2.21968C2.19205 14.4878 1.16328 14.478 1.13375 14.4707C0.239371 14.3362 0 13.5 -1.04904e-05 13C-1.04904e-05 12.5 0 12.5 0.000933513 12.4212V2.6937ZM14 0.5L9.96969 0.500029C9.7225 0.611075 9.64312 0.7983 9.65719 1.04764C9.67188 1.33009 9.65938 0.613712 9.66094 0.897333C9.66281 1.19619 9.82312 1.34767 10.1409 1.34884C10.5834 1.3506 11.0259 1.34884 11.4684 1.34884C11.5 1.34884 11.5469 1.34884 11.6367 1.34884C11.6367 1.34884 12.1953 1.34884 11.5 2C9.64375 3.73845 7.99755 5.50927 6.14234 7.24909C5.94329 7.43576 6.07933 7.5904 6.07933 7.5904C6.07933 7.5904 6.5 8 6.53624 8.02625C6.64093 8.10208 6.71593 8.26809 7.00093 8C8.85614 6.26155 10.6464 4.24119 12.5009 2.5C13.0009 2 13.0291 2.5 13.0291 2.46686V2.70044V2.8402C13.0291 3.25039 13.0291 3.66059 13.0291 4.07079C13.0306 4.35031 13.1956 4.50413 13.4944 4.50618C13.8016 4.50853 13.1094 4.49593 13.4156 4.51028C13.6816 4.52259 13.8813 4.44817 14 4.21729V0.5Z" fill="#888B92"/>
</svg>
